<svg width="36" height="36" viewBox="0 0 36 36" fill="none" xmlns="http://www.w3.org/2000/svg">
<path d="M17.9995 3C9.71951 3 2.99951 9.72 2.99951 18C2.99951 26.28 9.71951 33 17.9995 33C26.2795 33 32.9995 26.28 32.9995 18C32.9995 9.72 26.2795 3 17.9995 3ZM17.9995 7.5C20.4895 7.5 22.4995 9.51 22.4995 12C22.4995 14.49 20.4895 16.5 17.9995 16.5C15.5095 16.5 13.4995 14.49 13.4995 12C13.4995 9.51 15.5095 7.5 17.9995 7.5ZM17.9995 28.8C14.2495 28.8 10.9345 26.88 8.99951 23.97C9.04451 20.985 14.9995 19.35 17.9995 19.35C20.9845 19.35 26.9545 20.985 26.9995 23.97C25.0645 26.88 21.7495 28.8 17.9995 28.8Z" fill="#A6A6A6"/>
</svg>
