<svg width="375" height="944" viewBox="0 0 375 944" fill="none" xmlns="http://www.w3.org/2000/svg">
<g filter="url(#filter0_f_534_9676)">
<circle cx="199.5" cy="472" r="172" fill="#1BBB9B"/>
</g>
<g clip-path="url(#clip0_534_9676)">
<path d="M251.327 356H121.403C92.7003 356 69.4326 378.684 69.4326 406.667V533.333C69.4326 561.316 92.7003 584 121.403 584H251.327C280.03 584 303.297 561.316 303.297 533.333V406.667C303.297 378.684 280.03 356 251.327 356Z" fill="url(#paint0_linear_534_9676)"/>
<path d="M251.5 356H121.5C92.7812 356 69.5 378.684 69.5 406.667V533.333C69.5 561.316 92.7812 584 121.5 584H251.5C280.219 584 303.5 561.316 303.5 533.333V406.667C303.5 378.684 280.219 356 251.5 356Z" fill="url(#paint1_radial_534_9676)" fill-opacity="0.1"/>
<g clip-path="url(#clip1_534_9676)">
<path d="M34.1885 437.048H198.985L218.41 415.834H344.681" stroke="#B5B5B5" stroke-opacity="0.08" stroke-linecap="round"/>
<path d="M38.2061 431.608H192.491L212.783 410.395H344.684" stroke="#B5B5B5" stroke-opacity="0.08" stroke-linecap="round"/>
<path d="M32.8516 426.168H184.138L205.544 404.954H344.683" stroke="#B5B5B5" stroke-opacity="0.08" stroke-linecap="round"/>
<path d="M36.8691 420.729H177.644L199.916 399.516H344.685" stroke="#B5B5B5" stroke-opacity="0.08" stroke-linecap="round"/>
<path d="M32.1846 415.289H169.756L193.079 394.075H344.685" stroke="#B5B5B5" stroke-opacity="0.08" stroke-linecap="round"/>
<path d="M34.8633 409.85H162.334L186.647 388.637H344.687" stroke="#B5B5B5" stroke-opacity="0.08" stroke-linecap="round"/>
<path d="M32.1846 404.411H155.836L181.016 383.197H344.685" stroke="#B5B5B5" stroke-opacity="0.08" stroke-linecap="round"/>
<path d="M34.8633 398.972H148.413L174.583 377.758H344.687" stroke="#B5B5B5" stroke-opacity="0.08" stroke-linecap="round"/>
<path d="M36.8691 393.532H140.524L167.745 372.318H344.685" stroke="#B5B5B5" stroke-opacity="0.08" stroke-linecap="round"/>
<path d="M30.1758 388.094H135.882L163.723 366.88L344.684 366.88" stroke="#B5B5B5" stroke-opacity="0.08" stroke-linecap="round"/>
<path d="M35.5332 382.653H130.318L158.901 361.439L344.688 361.439" stroke="#B5B5B5" stroke-opacity="0.08" stroke-linecap="round"/>
<path d="M24.8271 377.214H122.895L152.467 356H344.688" stroke="#B5B5B5" stroke-opacity="0.08" stroke-linecap="round"/>
<path d="M121.186 442.488H201.862L222.155 421.274H354.055" stroke="#B5B5B5" stroke-opacity="0.08" stroke-linecap="round"/>
<path d="M121.186 447.927H204.734L225.893 426.713H363.424" stroke="#B5B5B5" stroke-opacity="0.08" stroke-linecap="round"/>
<path d="M121.186 453.366H207.607L229.631 432.152H372.792" stroke="#B5B5B5" stroke-opacity="0.08" stroke-linecap="round"/>
<g opacity="0.8" filter="url(#filter1_f_534_9676)">
<path d="M136.233 445.164C141.787 445.164 146.105 448.807 146.105 453.095V454.183C146.105 458.471 141.787 462.114 136.233 462.114C130.68 462.114 126.361 458.471 126.361 454.183V453.095C126.362 448.807 130.68 445.164 136.233 445.164Z" stroke="#B5B5B5" stroke-opacity="0.08"/>
</g>
<path d="M60.957 487.634H198.987L218.412 508.848H344.683" stroke="#B5B5B5" stroke-opacity="0.08" stroke-linecap="round"/>
<path d="M58.2812 493.072H192.491L212.784 514.286H344.684" stroke="#B5B5B5" stroke-opacity="0.08" stroke-linecap="round"/>
<path d="M59.6182 498.513H184.138L205.544 519.726H344.683" stroke="#B5B5B5" stroke-opacity="0.08" stroke-linecap="round"/>
<path d="M56.9395 503.951H177.64L199.911 525.165H344.681" stroke="#B5B5B5" stroke-opacity="0.08" stroke-linecap="round"/>
<path d="M58.9512 509.393H169.756L193.079 530.606H344.685" stroke="#B5B5B5" stroke-opacity="0.08" stroke-linecap="round"/>
<path d="M61.6299 514.83H162.334L186.647 536.044H344.687" stroke="#B5B5B5" stroke-opacity="0.08" stroke-linecap="round"/>
<path d="M58.9512 520.271H155.836L181.016 541.485H344.685" stroke="#B5B5B5" stroke-opacity="0.08" stroke-linecap="round"/>
<path d="M61.6299 525.71H148.413L174.583 546.924H344.687" stroke="#B5B5B5" stroke-opacity="0.08" stroke-linecap="round"/>
<path d="M50.251 531.149H140.522L167.744 552.363H344.684" stroke="#B5B5B5" stroke-opacity="0.08" stroke-linecap="round"/>
<path d="M43.5605 536.589H135.883L163.724 557.803H344.685" stroke="#B5B5B5" stroke-opacity="0.08" stroke-linecap="round"/>
<path d="M67.0273 542.028H130.314L158.897 563.242H344.684" stroke="#B5B5B5" stroke-opacity="0.08" stroke-linecap="round"/>
<path d="M72.7588 547.468H122.893L152.465 568.682H344.686" stroke="#B5B5B5" stroke-opacity="0.08" stroke-linecap="round"/>
<path d="M119.642 552.906L149.647 574.12H344.683" stroke="#B5B5B5" stroke-opacity="0.08" stroke-linecap="round"/>
<path d="M115.009 558.347L145.633 579.56H344.691" stroke="#B5B5B5" stroke-opacity="0.08" stroke-linecap="round"/>
<path d="M4.75195 563.786H108.974L140.403 585H344.688" stroke="#B5B5B5" stroke-opacity="0.08" stroke-linecap="round"/>
<path d="M60.957 482.194H201.859L222.151 503.408H354.052" stroke="#B5B5B5" stroke-opacity="0.08" stroke-linecap="round"/>
<path d="M121.186 476.755H204.734L225.893 497.969H363.424" stroke="#B5B5B5" stroke-opacity="0.08" stroke-linecap="round"/>
<path d="M121.186 471.314H207.607L229.631 492.528H372.792" stroke="#B5B5B5" stroke-opacity="0.08" stroke-linecap="round"/>
</g>
<path d="M165.45 513.98H160.9L135.68 586H112.28L145.56 495H181.44L214.46 586H191.06L165.45 513.98ZM136.59 548.82H189.63V567.8H136.59V548.82ZM222.244 495H244.864V586H222.244V495Z" fill="#19D3AD"/>
<path d="M106.708 457.418C106.708 456.531 106.429 455.898 105.872 455.518C105.315 455.138 104.517 454.948 103.478 454.948H97.702V459.888H103.402C104.441 459.888 105.251 459.698 105.834 459.318C106.417 458.913 106.708 458.279 106.708 457.418ZM91.09 476V449.4H104.808C106.632 449.4 108.177 449.691 109.444 450.274C110.736 450.857 111.711 451.68 112.37 452.744C113.054 453.783 113.396 455.011 113.396 456.43C113.396 457.621 113.168 458.621 112.712 459.432C112.281 460.217 111.661 460.838 110.85 461.294C110.065 461.75 109.153 462.054 108.114 462.206V462.51C109.381 462.662 110.445 463.004 111.306 463.536C112.193 464.043 112.864 464.739 113.32 465.626C113.776 466.487 114.004 467.513 114.004 468.704C114.004 470.173 113.662 471.453 112.978 472.542C112.319 473.631 111.331 474.48 110.014 475.088C108.722 475.696 107.126 476 105.226 476H91.09ZM97.702 470.452H104.01C105.074 470.452 105.897 470.224 106.48 469.768C107.063 469.312 107.354 468.641 107.354 467.754C107.354 466.842 107.05 466.171 106.442 465.74C105.834 465.284 104.998 465.056 103.934 465.056H97.702V470.452ZM131.155 454.948H129.825L122.453 476H115.613L125.341 449.4H135.829L145.481 476H138.641L131.155 454.948ZM122.719 465.132H138.223V470.68H122.719V465.132ZM163.108 458.064C163.108 457.101 162.817 456.341 162.234 455.784C161.651 455.227 160.765 454.948 159.574 454.948H154.368V461.218H159.574C160.359 461.218 161.005 461.104 161.512 460.876C162.044 460.623 162.437 460.255 162.69 459.774C162.969 459.293 163.108 458.723 163.108 458.064ZM159.992 449.4C162.196 449.4 164.02 449.805 165.464 450.616C166.933 451.401 168.023 452.453 168.732 453.77C169.467 455.087 169.834 456.519 169.834 458.064C169.834 459.128 169.631 460.179 169.226 461.218C168.846 462.257 168.251 463.194 167.44 464.03C166.655 464.866 165.641 465.537 164.4 466.044C163.159 466.525 161.689 466.766 159.992 466.766H154.368V476H147.756V449.4H159.992ZM163.336 464.486L170.328 476H163.032L156.42 464.486H163.336ZM172.447 462.7C172.447 460.724 172.763 458.913 173.397 457.266C174.055 455.594 174.967 454.15 176.133 452.934C177.323 451.718 178.742 450.781 180.389 450.122C182.035 449.463 183.847 449.134 185.823 449.134C188.812 449.134 191.371 449.881 193.499 451.376C195.627 452.845 197.147 454.872 198.059 457.456L192.321 458.71C191.865 457.773 191.32 457.013 190.687 456.43C190.053 455.822 189.331 455.379 188.521 455.1C187.71 454.821 186.811 454.682 185.823 454.682C184.404 454.682 183.188 455.037 182.175 455.746C181.161 456.455 180.389 457.418 179.857 458.634C179.325 459.825 179.059 461.18 179.059 462.7C179.059 464.245 179.325 465.626 179.857 466.842C180.389 468.033 181.161 468.983 182.175 469.692C183.188 470.376 184.404 470.718 185.823 470.718C186.811 470.718 187.735 470.579 188.597 470.3C189.458 469.996 190.231 469.515 190.915 468.856C191.599 468.172 192.181 467.285 192.663 466.196L198.249 467.336C197.337 470.173 195.804 472.377 193.651 473.948C191.497 475.493 188.888 476.266 185.823 476.266C183.847 476.266 182.035 475.937 180.389 475.278C178.742 474.619 177.323 473.695 176.133 472.504C174.967 471.288 174.055 469.857 173.397 468.21C172.763 466.538 172.447 464.701 172.447 462.7ZM214.367 476.266C212.467 476.266 210.694 475.937 209.047 475.278C207.4 474.619 205.944 473.695 204.677 472.504C203.436 471.288 202.46 469.857 201.751 468.21C201.042 466.538 200.687 464.701 200.687 462.7C200.687 460.699 201.042 458.875 201.751 457.228C202.46 455.556 203.436 454.125 204.677 452.934C205.944 451.718 207.4 450.781 209.047 450.122C210.694 449.463 212.467 449.134 214.367 449.134C216.267 449.134 218.04 449.463 219.687 450.122C221.359 450.781 222.816 451.718 224.057 452.934C225.298 454.125 226.274 455.556 226.983 457.228C227.692 458.875 228.047 460.699 228.047 462.7C228.047 464.701 227.692 466.538 226.983 468.21C226.274 469.857 225.286 471.288 224.019 472.504C222.778 473.695 221.334 474.619 219.687 475.278C218.04 475.937 216.267 476.266 214.367 476.266ZM214.367 470.604C215.76 470.604 216.976 470.262 218.015 469.578C219.054 468.894 219.864 467.957 220.447 466.766C221.03 465.575 221.321 464.22 221.321 462.7C221.321 461.155 221.03 459.799 220.447 458.634C219.864 457.443 219.054 456.506 218.015 455.822C216.976 455.138 215.76 454.796 214.367 454.796C212.948 454.796 211.72 455.138 210.681 455.822C209.642 456.506 208.832 457.443 208.249 458.634C207.692 459.799 207.413 461.155 207.413 462.7C207.413 464.22 207.692 465.575 208.249 466.766C208.832 467.957 209.642 468.894 210.681 469.578C211.72 470.262 212.948 470.604 214.367 470.604ZM242.046 449.4C244.909 449.4 247.379 449.957 249.456 451.072C251.559 452.187 253.18 453.745 254.32 455.746C255.485 457.747 256.068 460.065 256.068 462.7C256.068 465.309 255.485 467.615 254.32 469.616C253.18 471.617 251.559 473.188 249.456 474.328C247.379 475.443 244.909 476 242.046 476H231.178V449.4H242.046ZM241.628 470.452C244.035 470.452 245.922 469.755 247.29 468.362C248.658 466.969 249.342 465.081 249.342 462.7C249.342 460.293 248.658 458.406 247.29 457.038C245.922 455.645 244.035 454.948 241.628 454.948H237.79V470.452H241.628ZM279.183 454.948H265.845V459.926H275.801V465.094H265.845V470.452H279.183V476H259.233V449.4H279.183V454.948Z" fill="white"/>
</g>
<defs>
<filter id="filter0_f_534_9676" x="-272.5" y="0" width="944" height="944" filterUnits="userSpaceOnUse" color-interpolation-filters="sRGB">
<feFlood flood-opacity="0" result="BackgroundImageFix"/>
<feBlend mode="normal" in="SourceGraphic" in2="BackgroundImageFix" result="shape"/>
<feGaussianBlur stdDeviation="150" result="effect1_foregroundBlur_534_9676"/>
</filter>
<filter id="filter1_f_534_9676" x="49.8613" y="368.664" width="172.744" height="169.95" filterUnits="userSpaceOnUse" color-interpolation-filters="sRGB">
<feFlood flood-opacity="0" result="BackgroundImageFix"/>
<feBlend mode="normal" in="SourceGraphic" in2="BackgroundImageFix" result="shape"/>
<feGaussianBlur stdDeviation="38" result="effect1_foregroundBlur_534_9676"/>
</filter>
<linearGradient id="paint0_linear_534_9676" x1="186.365" y1="424.4" x2="186.365" y2="584" gradientUnits="userSpaceOnUse">
<stop stop-color="#1F1F21"/>
<stop offset="1" stop-color="#202022"/>
</linearGradient>
<radialGradient id="paint1_radial_534_9676" cx="0" cy="0" r="1" gradientUnits="userSpaceOnUse" gradientTransform="translate(30.5 439.6) rotate(17.4966) scale(139.032 165.231)">
<stop stop-color="#24FF95"/>
<stop offset="1" stop-color="#24FF95" stop-opacity="0"/>
</radialGradient>
<clipPath id="clip0_534_9676">
<rect x="70" y="356" width="235" height="228" rx="30" fill="white"/>
</clipPath>
<clipPath id="clip1_534_9676">
<rect x="69.5" y="356" width="234" height="229" rx="52" fill="white"/>
</clipPath>
</defs>
</svg>
