<svg width="770" height="944" viewBox="0 0 770 944" fill="none" xmlns="http://www.w3.org/2000/svg">
<g filter="url(#filter0_f_531_8806)">
<circle cx="397" cy="472" r="172" fill="#1BBB9B"/>
</g>
<g clip-path="url(#clip0_531_8806)">
<path d="M448.827 356H318.902C290.2 356 266.932 378.684 266.932 406.667V533.333C266.932 561.316 290.2 584 318.902 584H448.827C477.529 584 500.797 561.316 500.797 533.333V406.667C500.797 378.684 477.529 356 448.827 356Z" fill="url(#paint0_linear_531_8806)"/>
<path d="M449 356H319C290.281 356 267 378.684 267 406.667V533.333C267 561.316 290.281 584 319 584H449C477.719 584 501 561.316 501 533.333V406.667C501 378.684 477.719 356 449 356Z" fill="url(#paint1_radial_531_8806)" fill-opacity="0.1"/>
<g clip-path="url(#clip1_531_8806)">
<path d="M231.689 437.048H396.485L415.911 415.834H542.182" stroke="#B5B5B5" stroke-opacity="0.08" stroke-linecap="round"/>
<path d="M235.707 431.608H389.991L410.284 410.395H542.184" stroke="#B5B5B5" stroke-opacity="0.08" stroke-linecap="round"/>
<path d="M230.352 426.168H381.638L403.044 404.954H542.183" stroke="#B5B5B5" stroke-opacity="0.08" stroke-linecap="round"/>
<path d="M234.37 420.729H375.145L397.417 399.516H542.186" stroke="#B5B5B5" stroke-opacity="0.08" stroke-linecap="round"/>
<path d="M229.686 415.289H367.257L390.58 394.075H542.186" stroke="#B5B5B5" stroke-opacity="0.08" stroke-linecap="round"/>
<path d="M232.364 409.85H359.834L384.148 388.637H542.188" stroke="#B5B5B5" stroke-opacity="0.08" stroke-linecap="round"/>
<path d="M229.686 404.411H353.337L378.517 383.197H542.186" stroke="#B5B5B5" stroke-opacity="0.08" stroke-linecap="round"/>
<path d="M232.364 398.972H345.914L372.084 377.758H542.188" stroke="#B5B5B5" stroke-opacity="0.08" stroke-linecap="round"/>
<path d="M234.37 393.532H338.025L365.246 372.318H542.186" stroke="#B5B5B5" stroke-opacity="0.08" stroke-linecap="round"/>
<path d="M227.676 388.094H333.382L361.223 366.88L542.184 366.88" stroke="#B5B5B5" stroke-opacity="0.08" stroke-linecap="round"/>
<path d="M233.034 382.653H327.818L356.401 361.439L542.188 361.439" stroke="#B5B5B5" stroke-opacity="0.08" stroke-linecap="round"/>
<path d="M222.328 377.214H320.395L349.968 356H542.189" stroke="#B5B5B5" stroke-opacity="0.08" stroke-linecap="round"/>
<path d="M318.686 442.488H399.363L419.655 421.274H551.556" stroke="#B5B5B5" stroke-opacity="0.08" stroke-linecap="round"/>
<path d="M318.686 447.927H402.235L423.394 426.713H560.924" stroke="#B5B5B5" stroke-opacity="0.08" stroke-linecap="round"/>
<path d="M318.686 453.366H405.107L427.132 432.152H570.292" stroke="#B5B5B5" stroke-opacity="0.08" stroke-linecap="round"/>
<g opacity="0.8" filter="url(#filter1_f_531_8806)">
<path d="M333.733 445.164C339.287 445.164 343.605 448.807 343.605 453.095V454.183C343.605 458.471 339.287 462.114 333.733 462.114C328.18 462.114 323.861 458.471 323.861 454.183V453.095C323.862 448.807 328.18 445.164 333.733 445.164Z" stroke="#B5B5B5" stroke-opacity="0.08"/>
</g>
<path d="M258.458 487.634H396.487L415.913 508.848H542.184" stroke="#B5B5B5" stroke-opacity="0.08" stroke-linecap="round"/>
<path d="M255.782 493.072H389.992L410.284 514.286H542.185" stroke="#B5B5B5" stroke-opacity="0.08" stroke-linecap="round"/>
<path d="M257.118 498.513H381.638L403.044 519.726H542.183" stroke="#B5B5B5" stroke-opacity="0.08" stroke-linecap="round"/>
<path d="M254.44 503.951H375.14L397.412 525.165H542.181" stroke="#B5B5B5" stroke-opacity="0.08" stroke-linecap="round"/>
<path d="M256.452 509.393H367.256L390.58 530.606H542.185" stroke="#B5B5B5" stroke-opacity="0.08" stroke-linecap="round"/>
<path d="M259.13 514.83H359.834L384.147 536.044H542.187" stroke="#B5B5B5" stroke-opacity="0.08" stroke-linecap="round"/>
<path d="M256.452 520.271H353.336L378.516 541.485H542.185" stroke="#B5B5B5" stroke-opacity="0.08" stroke-linecap="round"/>
<path d="M259.13 525.71H345.913L372.083 546.924H542.187" stroke="#B5B5B5" stroke-opacity="0.08" stroke-linecap="round"/>
<path d="M247.752 531.149H338.023L365.245 552.363H542.185" stroke="#B5B5B5" stroke-opacity="0.08" stroke-linecap="round"/>
<path d="M241.061 536.589H333.384L361.224 557.803H542.186" stroke="#B5B5B5" stroke-opacity="0.08" stroke-linecap="round"/>
<path d="M264.528 542.028H327.815L356.397 563.242H542.185" stroke="#B5B5B5" stroke-opacity="0.08" stroke-linecap="round"/>
<path d="M270.259 547.468H320.393L349.966 568.682H542.187" stroke="#B5B5B5" stroke-opacity="0.08" stroke-linecap="round"/>
<path d="M317.142 552.906L347.147 574.12H542.183" stroke="#B5B5B5" stroke-opacity="0.08" stroke-linecap="round"/>
<path d="M312.509 558.347L343.133 579.56H542.191" stroke="#B5B5B5" stroke-opacity="0.08" stroke-linecap="round"/>
<path d="M202.252 563.786H306.475L337.904 585H542.189" stroke="#B5B5B5" stroke-opacity="0.08" stroke-linecap="round"/>
<path d="M258.458 482.194H399.359L419.652 503.408H551.552" stroke="#B5B5B5" stroke-opacity="0.08" stroke-linecap="round"/>
<path d="M318.686 476.755H402.235L423.394 497.969H560.924" stroke="#B5B5B5" stroke-opacity="0.08" stroke-linecap="round"/>
<path d="M318.686 471.314H405.107L427.132 492.528H570.292" stroke="#B5B5B5" stroke-opacity="0.08" stroke-linecap="round"/>
</g>
<path d="M362.95 513.98H358.4L333.18 586H309.78L343.06 495H378.94L411.96 586H388.56L362.95 513.98ZM334.09 548.82H387.13V567.8H334.09V548.82ZM419.744 495H442.364V586H419.744V495Z" fill="#19D3AD"/>
<path d="M304.208 457.418C304.208 456.531 303.929 455.898 303.372 455.518C302.815 455.138 302.017 454.948 300.978 454.948H295.202V459.888H300.902C301.941 459.888 302.751 459.698 303.334 459.318C303.917 458.913 304.208 458.279 304.208 457.418ZM288.59 476V449.4H302.308C304.132 449.4 305.677 449.691 306.944 450.274C308.236 450.857 309.211 451.68 309.87 452.744C310.554 453.783 310.896 455.011 310.896 456.43C310.896 457.621 310.668 458.621 310.212 459.432C309.781 460.217 309.161 460.838 308.35 461.294C307.565 461.75 306.653 462.054 305.614 462.206V462.51C306.881 462.662 307.945 463.004 308.806 463.536C309.693 464.043 310.364 464.739 310.82 465.626C311.276 466.487 311.504 467.513 311.504 468.704C311.504 470.173 311.162 471.453 310.478 472.542C309.819 473.631 308.831 474.48 307.514 475.088C306.222 475.696 304.626 476 302.726 476H288.59ZM295.202 470.452H301.51C302.574 470.452 303.397 470.224 303.98 469.768C304.563 469.312 304.854 468.641 304.854 467.754C304.854 466.842 304.55 466.171 303.942 465.74C303.334 465.284 302.498 465.056 301.434 465.056H295.202V470.452ZM328.655 454.948H327.325L319.953 476H313.113L322.841 449.4H333.329L342.981 476H336.141L328.655 454.948ZM320.219 465.132H335.723V470.68H320.219V465.132ZM360.608 458.064C360.608 457.101 360.317 456.341 359.734 455.784C359.151 455.227 358.265 454.948 357.074 454.948H351.868V461.218H357.074C357.859 461.218 358.505 461.104 359.012 460.876C359.544 460.623 359.937 460.255 360.19 459.774C360.469 459.293 360.608 458.723 360.608 458.064ZM357.492 449.4C359.696 449.4 361.52 449.805 362.964 450.616C364.433 451.401 365.523 452.453 366.232 453.77C366.967 455.087 367.334 456.519 367.334 458.064C367.334 459.128 367.131 460.179 366.726 461.218C366.346 462.257 365.751 463.194 364.94 464.03C364.155 464.866 363.141 465.537 361.9 466.044C360.659 466.525 359.189 466.766 357.492 466.766H351.868V476H345.256V449.4H357.492ZM360.836 464.486L367.828 476H360.532L353.92 464.486H360.836ZM369.947 462.7C369.947 460.724 370.263 458.913 370.897 457.266C371.555 455.594 372.467 454.15 373.633 452.934C374.823 451.718 376.242 450.781 377.889 450.122C379.535 449.463 381.347 449.134 383.323 449.134C386.312 449.134 388.871 449.881 390.999 451.376C393.127 452.845 394.647 454.872 395.559 457.456L389.821 458.71C389.365 457.773 388.82 457.013 388.187 456.43C387.553 455.822 386.831 455.379 386.021 455.1C385.21 454.821 384.311 454.682 383.323 454.682C381.904 454.682 380.688 455.037 379.675 455.746C378.661 456.455 377.889 457.418 377.357 458.634C376.825 459.825 376.559 461.18 376.559 462.7C376.559 464.245 376.825 465.626 377.357 466.842C377.889 468.033 378.661 468.983 379.675 469.692C380.688 470.376 381.904 470.718 383.323 470.718C384.311 470.718 385.235 470.579 386.097 470.3C386.958 469.996 387.731 469.515 388.415 468.856C389.099 468.172 389.681 467.285 390.163 466.196L395.749 467.336C394.837 470.173 393.304 472.377 391.151 473.948C388.997 475.493 386.388 476.266 383.323 476.266C381.347 476.266 379.535 475.937 377.889 475.278C376.242 474.619 374.823 473.695 373.633 472.504C372.467 471.288 371.555 469.857 370.897 468.21C370.263 466.538 369.947 464.701 369.947 462.7ZM411.867 476.266C409.967 476.266 408.194 475.937 406.547 475.278C404.9 474.619 403.444 473.695 402.177 472.504C400.936 471.288 399.96 469.857 399.251 468.21C398.542 466.538 398.187 464.701 398.187 462.7C398.187 460.699 398.542 458.875 399.251 457.228C399.96 455.556 400.936 454.125 402.177 452.934C403.444 451.718 404.9 450.781 406.547 450.122C408.194 449.463 409.967 449.134 411.867 449.134C413.767 449.134 415.54 449.463 417.187 450.122C418.859 450.781 420.316 451.718 421.557 452.934C422.798 454.125 423.774 455.556 424.483 457.228C425.192 458.875 425.547 460.699 425.547 462.7C425.547 464.701 425.192 466.538 424.483 468.21C423.774 469.857 422.786 471.288 421.519 472.504C420.278 473.695 418.834 474.619 417.187 475.278C415.54 475.937 413.767 476.266 411.867 476.266ZM411.867 470.604C413.26 470.604 414.476 470.262 415.515 469.578C416.554 468.894 417.364 467.957 417.947 466.766C418.53 465.575 418.821 464.22 418.821 462.7C418.821 461.155 418.53 459.799 417.947 458.634C417.364 457.443 416.554 456.506 415.515 455.822C414.476 455.138 413.26 454.796 411.867 454.796C410.448 454.796 409.22 455.138 408.181 455.822C407.142 456.506 406.332 457.443 405.749 458.634C405.192 459.799 404.913 461.155 404.913 462.7C404.913 464.22 405.192 465.575 405.749 466.766C406.332 467.957 407.142 468.894 408.181 469.578C409.22 470.262 410.448 470.604 411.867 470.604ZM439.546 449.4C442.409 449.4 444.879 449.957 446.956 451.072C449.059 452.187 450.68 453.745 451.82 455.746C452.985 457.747 453.568 460.065 453.568 462.7C453.568 465.309 452.985 467.615 451.82 469.616C450.68 471.617 449.059 473.188 446.956 474.328C444.879 475.443 442.409 476 439.546 476H428.678V449.4H439.546ZM439.128 470.452C441.535 470.452 443.422 469.755 444.79 468.362C446.158 466.969 446.842 465.081 446.842 462.7C446.842 460.293 446.158 458.406 444.79 457.038C443.422 455.645 441.535 454.948 439.128 454.948H435.29V470.452H439.128ZM476.683 454.948H463.345V459.926H473.301V465.094H463.345V470.452H476.683V476H456.733V449.4H476.683V454.948Z" fill="white"/>
</g>
<defs>
<filter id="filter0_f_531_8806" x="-75" y="0" width="944" height="944" filterUnits="userSpaceOnUse" color-interpolation-filters="sRGB">
<feFlood flood-opacity="0" result="BackgroundImageFix"/>
<feBlend mode="normal" in="SourceGraphic" in2="BackgroundImageFix" result="shape"/>
<feGaussianBlur stdDeviation="150" result="effect1_foregroundBlur_531_8806"/>
</filter>
<filter id="filter1_f_531_8806" x="247.361" y="368.664" width="172.744" height="169.95" filterUnits="userSpaceOnUse" color-interpolation-filters="sRGB">
<feFlood flood-opacity="0" result="BackgroundImageFix"/>
<feBlend mode="normal" in="SourceGraphic" in2="BackgroundImageFix" result="shape"/>
<feGaussianBlur stdDeviation="38" result="effect1_foregroundBlur_531_8806"/>
</filter>
<linearGradient id="paint0_linear_531_8806" x1="383.864" y1="424.4" x2="383.864" y2="584" gradientUnits="userSpaceOnUse">
<stop stop-color="#1F1F21"/>
<stop offset="1" stop-color="#202022"/>
</linearGradient>
<radialGradient id="paint1_radial_531_8806" cx="0" cy="0" r="1" gradientUnits="userSpaceOnUse" gradientTransform="translate(228 439.6) rotate(17.4966) scale(139.032 165.231)">
<stop stop-color="#24FF95"/>
<stop offset="1" stop-color="#24FF95" stop-opacity="0"/>
</radialGradient>
<clipPath id="clip0_531_8806">
<rect x="267.5" y="356" width="235" height="228" rx="30" fill="white"/>
</clipPath>
<clipPath id="clip1_531_8806">
<rect x="267" y="356" width="234" height="229" rx="52" fill="white"/>
</clipPath>
</defs>
</svg>
