<svg width="770" height="944" viewBox="0 0 770 944" fill="none" xmlns="http://www.w3.org/2000/svg">
<g filter="url(#filter0_f_1449_51478)">
<circle cx="298" cy="472" r="172" fill="#1BBB9B"/>
</g>
<g clip-path="url(#clip0_1449_51478)">
<path d="M349.827 356H219.902C191.2 356 167.932 378.684 167.932 406.667V533.333C167.932 561.316 191.2 584 219.902 584H349.827C378.529 584 401.797 561.316 401.797 533.333V406.667C401.797 378.684 378.529 356 349.827 356Z" fill="url(#paint0_linear_1449_51478)"/>
<path d="M350 356H220C191.281 356 168 378.684 168 406.667V533.333C168 561.316 191.281 584 220 584H350C378.719 584 402 561.316 402 533.333V406.667C402 378.684 378.719 356 350 356Z" fill="url(#paint1_radial_1449_51478)" fill-opacity="0.1"/>
<g clip-path="url(#clip1_1449_51478)">
<path d="M132.689 437.048H297.485L316.911 415.834H443.182" stroke="#B5B5B5" stroke-opacity="0.08" stroke-linecap="round"/>
<path d="M136.707 431.608H290.991L311.284 410.395H443.184" stroke="#B5B5B5" stroke-opacity="0.08" stroke-linecap="round"/>
<path d="M131.352 426.168H282.638L304.044 404.954H443.183" stroke="#B5B5B5" stroke-opacity="0.08" stroke-linecap="round"/>
<path d="M135.37 420.729H276.145L298.417 399.516H443.186" stroke="#B5B5B5" stroke-opacity="0.08" stroke-linecap="round"/>
<path d="M130.686 415.289H268.257L291.58 394.075H443.186" stroke="#B5B5B5" stroke-opacity="0.08" stroke-linecap="round"/>
<path d="M133.364 409.85H260.834L285.148 388.637H443.188" stroke="#B5B5B5" stroke-opacity="0.08" stroke-linecap="round"/>
<path d="M130.686 404.411H254.337L279.517 383.197H443.186" stroke="#B5B5B5" stroke-opacity="0.08" stroke-linecap="round"/>
<path d="M133.364 398.972H246.914L273.084 377.758H443.188" stroke="#B5B5B5" stroke-opacity="0.08" stroke-linecap="round"/>
<path d="M135.37 393.532H239.025L266.246 372.318H443.186" stroke="#B5B5B5" stroke-opacity="0.08" stroke-linecap="round"/>
<path d="M128.676 388.094H234.382L262.223 366.88L443.184 366.88" stroke="#B5B5B5" stroke-opacity="0.08" stroke-linecap="round"/>
<path d="M134.034 382.653H228.818L257.401 361.439L443.188 361.439" stroke="#B5B5B5" stroke-opacity="0.08" stroke-linecap="round"/>
<path d="M123.328 377.214H221.395L250.968 356H443.189" stroke="#B5B5B5" stroke-opacity="0.08" stroke-linecap="round"/>
<path d="M219.686 442.488H300.363L320.655 421.274H452.556" stroke="#B5B5B5" stroke-opacity="0.08" stroke-linecap="round"/>
<path d="M219.686 447.927H303.235L324.394 426.713H461.924" stroke="#B5B5B5" stroke-opacity="0.08" stroke-linecap="round"/>
<path d="M219.686 453.366H306.107L328.132 432.152H471.292" stroke="#B5B5B5" stroke-opacity="0.08" stroke-linecap="round"/>
<g opacity="0.8" filter="url(#filter1_f_1449_51478)">
<path d="M234.733 445.164C240.287 445.164 244.605 448.807 244.605 453.095V454.183C244.605 458.471 240.287 462.114 234.733 462.114C229.18 462.114 224.861 458.471 224.861 454.183V453.095C224.862 448.807 229.18 445.164 234.733 445.164Z" stroke="#B5B5B5" stroke-opacity="0.08"/>
</g>
<path d="M159.458 487.634H297.487L316.913 508.848H443.184" stroke="#B5B5B5" stroke-opacity="0.08" stroke-linecap="round"/>
<path d="M156.782 493.072H290.992L311.284 514.286H443.185" stroke="#B5B5B5" stroke-opacity="0.08" stroke-linecap="round"/>
<path d="M158.118 498.513H282.638L304.044 519.726H443.183" stroke="#B5B5B5" stroke-opacity="0.08" stroke-linecap="round"/>
<path d="M155.44 503.951H276.14L298.412 525.165H443.181" stroke="#B5B5B5" stroke-opacity="0.08" stroke-linecap="round"/>
<path d="M157.452 509.393H268.256L291.58 530.606H443.185" stroke="#B5B5B5" stroke-opacity="0.08" stroke-linecap="round"/>
<path d="M160.13 514.83H260.834L285.147 536.044H443.187" stroke="#B5B5B5" stroke-opacity="0.08" stroke-linecap="round"/>
<path d="M157.452 520.271H254.336L279.516 541.485H443.185" stroke="#B5B5B5" stroke-opacity="0.08" stroke-linecap="round"/>
<path d="M160.13 525.71H246.913L273.083 546.924H443.187" stroke="#B5B5B5" stroke-opacity="0.08" stroke-linecap="round"/>
<path d="M148.752 531.149H239.023L266.245 552.363H443.185" stroke="#B5B5B5" stroke-opacity="0.08" stroke-linecap="round"/>
<path d="M142.061 536.589H234.384L262.224 557.803H443.186" stroke="#B5B5B5" stroke-opacity="0.08" stroke-linecap="round"/>
<path d="M165.528 542.028H228.815L257.397 563.242H443.185" stroke="#B5B5B5" stroke-opacity="0.08" stroke-linecap="round"/>
<path d="M171.259 547.468H221.393L250.966 568.682H443.187" stroke="#B5B5B5" stroke-opacity="0.08" stroke-linecap="round"/>
<path d="M218.142 552.906L248.147 574.12H443.183" stroke="#B5B5B5" stroke-opacity="0.08" stroke-linecap="round"/>
<path d="M213.509 558.347L244.133 579.56H443.191" stroke="#B5B5B5" stroke-opacity="0.08" stroke-linecap="round"/>
<path d="M103.252 563.786H207.475L238.904 585H443.189" stroke="#B5B5B5" stroke-opacity="0.08" stroke-linecap="round"/>
<path d="M159.458 482.194H300.359L320.652 503.408H452.552" stroke="#B5B5B5" stroke-opacity="0.08" stroke-linecap="round"/>
<path d="M219.686 476.755H303.235L324.394 497.969H461.924" stroke="#B5B5B5" stroke-opacity="0.08" stroke-linecap="round"/>
<path d="M219.686 471.314H306.107L328.132 492.528H471.292" stroke="#B5B5B5" stroke-opacity="0.08" stroke-linecap="round"/>
</g>
<path d="M263.95 513.98H259.4L234.18 586H210.78L244.06 495H279.94L312.96 586H289.56L263.95 513.98ZM235.09 548.82H288.13V567.8H235.09V548.82ZM320.744 495H343.364V586H320.744V495Z" fill="#19D3AD"/>
<path d="M205.208 457.418C205.208 456.531 204.929 455.898 204.372 455.518C203.815 455.138 203.017 454.948 201.978 454.948H196.202V459.888H201.902C202.941 459.888 203.751 459.698 204.334 459.318C204.917 458.913 205.208 458.279 205.208 457.418ZM189.59 476V449.4H203.308C205.132 449.4 206.677 449.691 207.944 450.274C209.236 450.857 210.211 451.68 210.87 452.744C211.554 453.783 211.896 455.011 211.896 456.43C211.896 457.621 211.668 458.621 211.212 459.432C210.781 460.217 210.161 460.838 209.35 461.294C208.565 461.75 207.653 462.054 206.614 462.206V462.51C207.881 462.662 208.945 463.004 209.806 463.536C210.693 464.043 211.364 464.739 211.82 465.626C212.276 466.487 212.504 467.513 212.504 468.704C212.504 470.173 212.162 471.453 211.478 472.542C210.819 473.631 209.831 474.48 208.514 475.088C207.222 475.696 205.626 476 203.726 476H189.59ZM196.202 470.452H202.51C203.574 470.452 204.397 470.224 204.98 469.768C205.563 469.312 205.854 468.641 205.854 467.754C205.854 466.842 205.55 466.171 204.942 465.74C204.334 465.284 203.498 465.056 202.434 465.056H196.202V470.452ZM229.655 454.948H228.325L220.953 476H214.113L223.841 449.4H234.329L243.981 476H237.141L229.655 454.948ZM221.219 465.132H236.723V470.68H221.219V465.132ZM261.608 458.064C261.608 457.101 261.317 456.341 260.734 455.784C260.151 455.227 259.265 454.948 258.074 454.948H252.868V461.218H258.074C258.859 461.218 259.505 461.104 260.012 460.876C260.544 460.623 260.937 460.255 261.19 459.774C261.469 459.293 261.608 458.723 261.608 458.064ZM258.492 449.4C260.696 449.4 262.52 449.805 263.964 450.616C265.433 451.401 266.523 452.453 267.232 453.77C267.967 455.087 268.334 456.519 268.334 458.064C268.334 459.128 268.131 460.179 267.726 461.218C267.346 462.257 266.751 463.194 265.94 464.03C265.155 464.866 264.141 465.537 262.9 466.044C261.659 466.525 260.189 466.766 258.492 466.766H252.868V476H246.256V449.4H258.492ZM261.836 464.486L268.828 476H261.532L254.92 464.486H261.836ZM270.947 462.7C270.947 460.724 271.263 458.913 271.897 457.266C272.555 455.594 273.467 454.15 274.633 452.934C275.823 451.718 277.242 450.781 278.889 450.122C280.535 449.463 282.347 449.134 284.323 449.134C287.312 449.134 289.871 449.881 291.999 451.376C294.127 452.845 295.647 454.872 296.559 457.456L290.821 458.71C290.365 457.773 289.82 457.013 289.187 456.43C288.553 455.822 287.831 455.379 287.021 455.1C286.21 454.821 285.311 454.682 284.323 454.682C282.904 454.682 281.688 455.037 280.675 455.746C279.661 456.455 278.889 457.418 278.357 458.634C277.825 459.825 277.559 461.18 277.559 462.7C277.559 464.245 277.825 465.626 278.357 466.842C278.889 468.033 279.661 468.983 280.675 469.692C281.688 470.376 282.904 470.718 284.323 470.718C285.311 470.718 286.235 470.579 287.097 470.3C287.958 469.996 288.731 469.515 289.415 468.856C290.099 468.172 290.681 467.285 291.163 466.196L296.749 467.336C295.837 470.173 294.304 472.377 292.151 473.948C289.997 475.493 287.388 476.266 284.323 476.266C282.347 476.266 280.535 475.937 278.889 475.278C277.242 474.619 275.823 473.695 274.633 472.504C273.467 471.288 272.555 469.857 271.897 468.21C271.263 466.538 270.947 464.701 270.947 462.7ZM312.867 476.266C310.967 476.266 309.194 475.937 307.547 475.278C305.9 474.619 304.444 473.695 303.177 472.504C301.936 471.288 300.96 469.857 300.251 468.21C299.542 466.538 299.187 464.701 299.187 462.7C299.187 460.699 299.542 458.875 300.251 457.228C300.96 455.556 301.936 454.125 303.177 452.934C304.444 451.718 305.9 450.781 307.547 450.122C309.194 449.463 310.967 449.134 312.867 449.134C314.767 449.134 316.54 449.463 318.187 450.122C319.859 450.781 321.316 451.718 322.557 452.934C323.798 454.125 324.774 455.556 325.483 457.228C326.192 458.875 326.547 460.699 326.547 462.7C326.547 464.701 326.192 466.538 325.483 468.21C324.774 469.857 323.786 471.288 322.519 472.504C321.278 473.695 319.834 474.619 318.187 475.278C316.54 475.937 314.767 476.266 312.867 476.266ZM312.867 470.604C314.26 470.604 315.476 470.262 316.515 469.578C317.554 468.894 318.364 467.957 318.947 466.766C319.53 465.575 319.821 464.22 319.821 462.7C319.821 461.155 319.53 459.799 318.947 458.634C318.364 457.443 317.554 456.506 316.515 455.822C315.476 455.138 314.26 454.796 312.867 454.796C311.448 454.796 310.22 455.138 309.181 455.822C308.142 456.506 307.332 457.443 306.749 458.634C306.192 459.799 305.913 461.155 305.913 462.7C305.913 464.22 306.192 465.575 306.749 466.766C307.332 467.957 308.142 468.894 309.181 469.578C310.22 470.262 311.448 470.604 312.867 470.604ZM340.546 449.4C343.409 449.4 345.879 449.957 347.956 451.072C350.059 452.187 351.68 453.745 352.82 455.746C353.985 457.747 354.568 460.065 354.568 462.7C354.568 465.309 353.985 467.615 352.82 469.616C351.68 471.617 350.059 473.188 347.956 474.328C345.879 475.443 343.409 476 340.546 476H329.678V449.4H340.546ZM340.128 470.452C342.535 470.452 344.422 469.755 345.79 468.362C347.158 466.969 347.842 465.081 347.842 462.7C347.842 460.293 347.158 458.406 345.79 457.038C344.422 455.645 342.535 454.948 340.128 454.948H336.29V470.452H340.128ZM377.683 454.948H364.345V459.926H374.301V465.094H364.345V470.452H377.683V476H357.733V449.4H377.683V454.948Z" fill="white"/>
</g>
<defs>
<filter id="filter0_f_1449_51478" x="-174" y="0" width="944" height="944" filterUnits="userSpaceOnUse" color-interpolation-filters="sRGB">
<feFlood flood-opacity="0" result="BackgroundImageFix"/>
<feBlend mode="normal" in="SourceGraphic" in2="BackgroundImageFix" result="shape"/>
<feGaussianBlur stdDeviation="150" result="effect1_foregroundBlur_1449_51478"/>
</filter>
<filter id="filter1_f_1449_51478" x="148.361" y="368.664" width="172.744" height="169.95" filterUnits="userSpaceOnUse" color-interpolation-filters="sRGB">
<feFlood flood-opacity="0" result="BackgroundImageFix"/>
<feBlend mode="normal" in="SourceGraphic" in2="BackgroundImageFix" result="shape"/>
<feGaussianBlur stdDeviation="38" result="effect1_foregroundBlur_1449_51478"/>
</filter>
<linearGradient id="paint0_linear_1449_51478" x1="284.864" y1="424.4" x2="284.864" y2="584" gradientUnits="userSpaceOnUse">
<stop stop-color="#1F1F21"/>
<stop offset="1" stop-color="#202022"/>
</linearGradient>
<radialGradient id="paint1_radial_1449_51478" cx="0" cy="0" r="1" gradientUnits="userSpaceOnUse" gradientTransform="translate(129 439.6) rotate(17.4966) scale(139.032 165.231)">
<stop stop-color="#24FF95"/>
<stop offset="1" stop-color="#24FF95" stop-opacity="0"/>
</radialGradient>
<clipPath id="clip0_1449_51478">
<rect x="168.5" y="356" width="235" height="228" rx="30" fill="white"/>
</clipPath>
<clipPath id="clip1_1449_51478">
<rect x="168" y="356" width="234" height="229" rx="52" fill="white"/>
</clipPath>
</defs>
</svg>
