<svg width="38" height="38" viewBox="0 0 38 38" fill="none" xmlns="http://www.w3.org/2000/svg">
<rect width="38" height="38" rx="19" fill="#F38016"/>
<g clip-path="url(#clip0_1607_7281)">
<path d="M25.1379 18.9537C24.494 18.4689 23.5769 18.2749 23.5769 18.2749C23.5769 18.2749 24.353 17.825 24.6702 17.3754C24.9877 16.9258 25.1463 16.229 25.1729 15.8675C25.1992 15.5059 25.2611 13.9894 24.0794 13.1165C23.1653 12.4412 22.1179 12.1731 20.7113 12.0858V9.02539H18.8243V12.0497C18.4033 12.0497 17.9113 12.0497 17.3871 12.0497V9.02539H15.5003V12.0497C13.5741 12.0497 11.7881 12.0497 11.7881 12.0497V14.0092C11.7881 14.0092 12.5816 14.0092 12.8792 14.0092C13.1767 14.0092 13.7057 14.0423 13.9305 14.2939C14.1554 14.5451 14.1951 14.6775 14.1951 15.1666C14.1951 15.6559 14.1952 22.7895 14.1952 22.9747C14.1952 23.1598 14.1599 23.3889 14.0011 23.5389C13.8425 23.689 13.6839 23.724 13.3046 23.724C12.9253 23.724 12.176 23.724 12.176 23.724L11.7881 25.9903C11.7881 25.9903 13.6329 25.9903 15.5003 25.9903V29.0061H17.3872V25.9903C17.9669 25.9903 18.4717 25.9903 18.8244 25.9903V29.0061H20.7114V25.9406C21.1992 25.9121 21.654 25.8752 21.9193 25.8404C22.4572 25.77 23.6739 25.6289 24.8116 24.8353C25.949 24.0416 26.2045 22.7982 26.231 21.5462C26.2578 20.2942 25.781 19.4387 25.1379 18.9537ZM17.3871 14.1836C17.3871 14.1836 17.9866 14.1308 18.5774 14.1394C19.1684 14.1481 19.6884 14.1659 20.4645 14.404C21.2404 14.6422 21.6985 15.2242 21.7165 15.912C21.7341 16.5998 21.4339 17.0581 20.9051 17.3492C20.3762 17.6401 19.6447 17.7989 18.9566 17.825C18.269 17.8516 17.3871 17.825 17.3871 17.825V14.1836ZM21.6106 23.2038C21.1785 23.442 20.3143 23.6536 19.4769 23.7152C18.6391 23.777 17.3871 23.7505 17.3871 23.7505V19.7031C17.3871 19.7031 18.5863 19.6415 19.5211 19.7031C20.4556 19.7651 21.2404 20.003 21.5929 20.1796C21.9456 20.3558 22.563 20.7437 22.563 21.6697C22.563 22.5954 22.0424 22.9658 21.6106 23.2038Z" fill="white"/>
</g>
<defs>
<clipPath id="clip0_1607_7281">
<rect width="20" height="20" fill="white" transform="translate(9 9)"/>
</clipPath>
</defs>
</svg>
