<svg width="18" height="18" viewBox="0 0 18 18" fill="none" xmlns="http://www.w3.org/2000/svg">
<path fill-rule="evenodd" clip-rule="evenodd" d="M4.2487 2.05649C4.49627 1.27841 5.21891 0.75 6.03543 0.75H9.8817C11.2278 0.75 12.1354 2.12635 11.6051 3.3636L10.4752 6H13.6804C15.3661 6 16.1956 8.0514 14.9835 9.22312L7.07291 16.87C6.18995 17.7235 4.77323 16.7467 5.25697 15.618L7.45041 10.5H4.12634C2.85733 10.5 1.95484 9.2658 2.33961 8.0565L4.2487 2.05649ZM6.03543 2.25C5.87213 2.25 5.7276 2.35568 5.67808 2.5113L3.769 8.5113C3.69204 8.75317 3.87254 9 4.12634 9H8.36032C9.00645 9 9.44205 9.66067 9.18757 10.2545L7.36921 14.4973L13.941 8.14462C14.1834 7.91025 14.0175 7.5 13.6804 7.5H9.56527C8.91915 7.5 8.48355 6.83935 8.7381 6.24547L10.2264 2.77272C10.3324 2.52527 10.1509 2.25 9.8817 2.25H6.03543Z" fill="#A6A6A6"/>
</svg>
