<svg width="33" height="32" viewBox="0 0 33 32" fill="none" xmlns="http://www.w3.org/2000/svg">
<path d="M20.7467 23.5C20.4227 23.4989 20.1122 23.3743 19.8826 23.1533L13.361 16.85C13.13 16.6294 13 16.3286 13 16.0148C13 15.7009 13.13 15.4001 13.361 15.1796L19.8826 8.8762C20.1874 8.56 20.6465 8.42984 21.0797 8.53678C21.513 8.64373 21.8513 8.97071 21.9619 9.38947C22.0726 9.80822 21.9379 10.252 21.6108 10.5466L15.9533 16.0148L21.6108 21.4829C21.8418 21.7035 21.9718 22.0043 21.9718 22.3181C21.9718 22.632 21.8418 22.9327 21.6108 23.1533C21.3812 23.3743 21.0707 23.4989 20.7467 23.5Z" fill="white"/>
</svg>
