<svg width="18" height="18" viewBox="0 0 18 18" fill="none" xmlns="http://www.w3.org/2000/svg">
<path d="M5.66602 5.66602V3.99935C5.66602 2.1584 7.1584 0.666016 8.99935 0.666016L13.9993 0.666016C15.8403 0.666016 17.3327 2.1584 17.3327 3.99935V8.99935C17.3327 10.8403 15.8403 12.3327 13.9993 12.3327H12.3327M5.66602 5.66602H3.99935C2.1584 5.66602 0.666016 7.1584 0.666016 8.99935V13.9993C0.666016 15.8403 2.1584 17.3327 3.99935 17.3327H8.99935C10.8403 17.3327 12.3327 15.8403 12.3327 13.9993V12.3327M5.66602 5.66602H8.99935C10.8403 5.66602 12.3327 7.1584 12.3327 8.99935V12.3327" stroke="white" stroke-width="1.2" stroke-linecap="round" stroke-linejoin="round"/>
</svg>
