<svg width="22" height="22" viewBox="0 0 22 22" fill="none" xmlns="http://www.w3.org/2000/svg">
<path d="M11.5061 15.1306C11.3758 15.273 11.1918 15.3542 10.9987 15.3542C10.8057 15.3542 10.6216 15.273 10.4913 15.1306L6.82464 11.1202C6.56843 10.8399 6.5879 10.4051 6.86813 10.1489C7.14836 9.89267 7.58322 9.9121 7.83943 10.1923L10.3112 12.8958V2.75C10.3112 2.37031 10.619 2.0625 10.9987 2.0625C11.3784 2.0625 11.6862 2.37031 11.6862 2.75V12.8958L14.158 10.1923C14.4142 9.9121 14.8491 9.89267 15.1293 10.1489C15.4095 10.4051 15.429 10.8399 15.1727 11.1202L11.5061 15.1306Z" fill="white"/>
<path d="M3.4375 13.75C3.4375 13.3703 3.1297 13.0625 2.75 13.0625C2.37031 13.0625 2.0625 13.3703 2.0625 13.75V13.8003C2.06248 15.054 2.06246 16.0644 2.16931 16.8591C2.28025 17.6842 2.51756 18.3789 3.06932 18.9306C3.62108 19.4825 4.3158 19.7198 5.1409 19.8307C5.93562 19.9375 6.94608 19.9375 8.1997 19.9375H13.8003C15.054 19.9375 16.0644 19.9375 16.8591 19.8307C17.6842 19.7198 18.3789 19.4825 18.9307 18.9306C19.4825 18.3789 19.7198 17.6842 19.8307 16.8591C19.9375 16.0644 19.9375 15.054 19.9375 13.8003V13.75C19.9375 13.3703 19.6297 13.0625 19.25 13.0625C18.8703 13.0625 18.5625 13.3703 18.5625 13.75C18.5625 15.0658 18.561 15.9835 18.468 16.6759C18.3775 17.3486 18.2122 17.7047 17.9584 17.9584C17.7047 18.2121 17.3486 18.3775 16.6759 18.468C15.9835 18.561 15.0658 18.5625 13.75 18.5625H8.25C6.93421 18.5625 6.01651 18.561 5.32411 18.468C4.65149 18.3775 4.29529 18.2121 4.04159 17.9584C3.7879 17.7047 3.62248 17.3486 3.53205 16.6759C3.43896 15.9835 3.4375 15.0658 3.4375 13.75Z" fill="white"/>
</svg>
