<svg width="44" height="44" viewBox="0 0 44 44" fill="none" xmlns="http://www.w3.org/2000/svg">
<rect x="0.5" y="0.5" width="43" height="43" rx="21.5" stroke="white" stroke-opacity="0.125"/>
<path fill-rule="evenodd" clip-rule="evenodd" d="M28 14H16C14.897 14 14 14.897 14 16V28C14 29.103 14.897 30 16 30H22V24.5H20V22H22V20C22 19.2044 22.3161 18.4413 22.8787 17.8787C23.4413 17.3161 24.2044 17 25 17H27V19.5H26C25.448 19.5 25 19.448 25 20V22H27.5L26.5 24.5H25V30H28C29.103 30 30 29.103 30 28V16C30 14.897 29.103 14 28 14Z" fill="white"/>
</svg>
