<svg width="18" height="18" viewBox="0 0 18 18" fill="none" xmlns="http://www.w3.org/2000/svg">
<path d="M7.5 6.74998C7.5 5.92155 8.17157 5.24998 9 5.24998C9.82843 5.24998 10.5 5.92155 10.5 6.74998C10.5 7.04859 10.4127 7.32682 10.2623 7.56057C9.81405 8.25723 9 8.92155 9 9.74998V10.125M9 12V12.75M2.25 6.84894V11.1511C2.25 12.2936 2.84423 13.3493 3.80885 13.9205L7.44115 16.0716C8.40577 16.6428 9.59423 16.6428 10.5588 16.0716L14.1912 13.9205C15.1558 13.3493 15.75 12.2936 15.75 11.1511V6.84894C15.75 5.70645 15.1558 4.65074 14.1912 4.07949L10.5588 1.92844C9.59423 1.35719 8.40577 1.35719 7.44115 1.92844L3.80885 4.07949C2.84423 4.65074 2.25 5.70645 2.25 6.84894Z" stroke="#A6A6A6" stroke-width="1.3" stroke-linecap="round"/>
</svg>
