<svg width="18" height="18" viewBox="0 0 18 18" fill="none" xmlns="http://www.w3.org/2000/svg">
<path d="M3.74809 3.74927C3.74809 3.44427 3.56605 3.1818 3.30469 3.06459C3.41263 2.97957 3.54343 2.92138 3.68779 2.90075L11.786 1.74387C12.6896 1.61478 13.4981 2.31597 13.4981 3.2288V3.84378C13.2584 3.78208 13.0071 3.74927 12.7481 3.74927H3.74809Z" fill="#A6A6A6"/>
<path d="M7.3125 9.75C7.3125 8.81805 8.06805 8.0625 9 8.0625C9.93195 8.0625 10.6875 8.81805 10.6875 9.75C10.6875 10.682 9.93195 11.4375 9 11.4375C8.06805 11.4375 7.3125 10.682 7.3125 9.75Z" fill="#A6A6A6"/>
<path fill-rule="evenodd" clip-rule="evenodd" d="M13.5 4.62803C14.3739 4.9369 15 5.77033 15 6.75V14.25C15 15.4927 13.9927 16.5 12.75 16.5H5.25C4.00736 16.5 3 15.4927 3 14.25V3.75C3 3.8866 3.03653 4.01468 3.10034 4.125C3.23002 4.34917 3.4724 4.5 3.75 4.5H12.75C13.0129 4.5 13.2654 4.54511 13.5 4.62803ZM9 6.9375C7.4467 6.9375 6.1875 8.19667 6.1875 9.75C6.1875 11.3033 7.4467 12.5625 9 12.5625C10.5533 12.5625 11.8125 11.3033 11.8125 9.75C11.8125 8.19667 10.5533 6.9375 9 6.9375ZM7.5 13.6875C7.18934 13.6875 6.9375 13.9393 6.9375 14.25C6.9375 14.5606 7.18934 14.8125 7.5 14.8125H10.5C10.8106 14.8125 11.0625 14.5606 11.0625 14.25C11.0625 13.9393 10.8106 13.6875 10.5 13.6875H7.5Z" fill="#A6A6A6"/>
</svg>
