<svg width="20" height="20" viewBox="0 0 20 20" fill="none" xmlns="http://www.w3.org/2000/svg">
<path d="M3.33203 4.66732C3.33203 3.93094 3.92898 3.33398 4.66536 3.33398H7.33203C8.06841 3.33398 8.66536 3.93094 8.66536 4.66732V7.33398C8.66536 8.07036 8.06841 8.66732 7.33203 8.66732H4.66536C3.92898 8.66732 3.33203 8.07036 3.33203 7.33398V4.66732Z" stroke="#A6A6A6" stroke-width="1.2"/>
<path d="M16.6654 6.00065C16.6654 7.47341 15.4715 8.66732 13.9987 8.66732C12.5259 8.66732 11.332 7.47341 11.332 6.00065C11.332 4.52789 12.5259 3.33398 13.9987 3.33398C15.4715 3.33398 16.6654 4.52789 16.6654 6.00065Z" stroke="#A6A6A6" stroke-width="1.2"/>
<path d="M8.66536 14.0007C8.66536 15.4734 7.47146 16.6673 5.9987 16.6673C4.52594 16.6673 3.33203 15.4734 3.33203 14.0007C3.33203 12.5279 4.52594 11.334 5.9987 11.334C7.47146 11.334 8.66536 12.5279 8.66536 14.0007Z" stroke="#A6A6A6" stroke-width="1.2"/>
<path d="M11.332 12.6673C11.332 11.9309 11.929 11.334 12.6654 11.334H15.332C16.0684 11.334 16.6654 11.9309 16.6654 12.6673V15.334C16.6654 16.0704 16.0684 16.6673 15.332 16.6673H12.6654C11.929 16.6673 11.332 16.0704 11.332 15.334V12.6673Z" stroke="#A6A6A6" stroke-width="1.2"/>
</svg>
