<svg width="18" height="18" viewBox="0 0 18 18" fill="none" xmlns="http://www.w3.org/2000/svg">
<path d="M3.75 16.5004C4.41316 16.498 5.05681 16.2758 5.58032 15.8687C6.10384 15.4616 6.47771 14.8925 6.6435 14.2504H11.3565C11.5 14.8389 11.8164 15.3709 12.265 15.7779C12.7137 16.1849 13.2739 16.4482 13.8735 16.5339C14.4731 16.6196 15.0847 16.5237 15.6293 16.2587C16.174 15.9936 16.6267 15.5715 16.9293 15.0468C17.2319 14.522 17.3703 13.9187 17.3269 13.3146C17.2834 12.7104 17.06 12.1331 16.6855 11.6571C16.3109 11.1811 15.8024 10.8281 15.2254 10.6438C14.6484 10.4594 14.0294 10.4521 13.4482 10.6227L11.112 6.62744C11.5344 6.20902 11.8229 5.67453 11.941 5.09181C12.0591 4.5091 12.0013 3.90444 11.7751 3.35461C11.5489 2.80478 11.1644 2.33456 10.6704 2.00366C10.1765 1.67276 9.5953 1.49609 9.00075 1.49609C8.4062 1.49609 7.82505 1.67276 7.33109 2.00366C6.83712 2.33456 6.45262 2.80478 6.2264 3.35461C6.00018 3.90444 5.94243 4.5091 6.06049 5.09181C6.17855 5.67453 6.4671 6.20902 6.8895 6.62744L4.5585 10.6249C4.29603 10.5464 4.02395 10.5045 3.75 10.5004C2.95435 10.5004 2.19129 10.8165 1.62868 11.3791C1.06607 11.9417 0.75 12.7048 0.75 13.5004C0.75 14.2961 1.06607 15.0591 1.62868 15.6218C2.19129 16.1844 2.95435 16.5004 3.75 16.5004ZM14.25 12.0004C14.5467 12.0004 14.8367 12.0884 15.0834 12.2532C15.33 12.4181 15.5223 12.6523 15.6358 12.9264C15.7493 13.2005 15.7791 13.5021 15.7212 13.7931C15.6633 14.084 15.5204 14.3513 15.3107 14.5611C15.1009 14.7709 14.8336 14.9137 14.5426 14.9716C14.2517 15.0295 13.9501 14.9998 13.676 14.8863C13.4019 14.7727 13.1676 14.5805 13.0028 14.3338C12.838 14.0871 12.75 13.7971 12.75 13.5004C12.75 13.1026 12.908 12.7211 13.1893 12.4398C13.4706 12.1585 13.8522 12.0004 14.25 12.0004ZM9 3.00044C9.29667 3.00044 9.58668 3.08841 9.83335 3.25323C10.08 3.41805 10.2723 3.65232 10.3858 3.92641C10.4994 4.2005 10.5291 4.5021 10.4712 4.79307C10.4133 5.08404 10.2704 5.35132 10.0607 5.5611C9.85088 5.77088 9.58361 5.91374 9.29263 5.97161C9.00166 6.02949 8.70006 5.99979 8.42597 5.88626C8.15189 5.77272 7.91762 5.58047 7.7528 5.33379C7.58797 5.08712 7.5 4.79711 7.5 4.50044C7.5 4.10261 7.65803 3.72108 7.93934 3.43978C8.22064 3.15847 8.60217 3.00044 9 3.00044ZM8.1915 7.37594C8.45397 7.45452 8.72605 7.49642 9 7.50044C9.27507 7.49672 9.54825 7.4543 9.8115 7.37444L12.1455 11.3667C11.7626 11.7484 11.49 12.2265 11.3565 12.7504H6.6435C6.51104 12.229 6.24056 11.7528 5.8605 11.3719L8.1915 7.37594ZM3.75 12.0004C4.04667 12.0004 4.33668 12.0884 4.58335 12.2532C4.83003 12.4181 5.02229 12.6523 5.13582 12.9264C5.24935 13.2005 5.27906 13.5021 5.22118 13.7931C5.1633 14.084 5.02044 14.3513 4.81066 14.5611C4.60088 14.7709 4.33361 14.9137 4.04264 14.9716C3.75166 15.0295 3.45006 14.9998 3.17597 14.8863C2.90189 14.7727 2.66762 14.5805 2.5028 14.3338C2.33797 14.0871 2.25 13.7971 2.25 13.5004C2.25 13.1026 2.40804 12.7211 2.68934 12.4398C2.97064 12.1585 3.35217 12.0004 3.75 12.0004Z" fill="#A6A6A6"/>
</svg>
