<svg width="18" height="18" viewBox="0 0 18 18" fill="none" xmlns="http://www.w3.org/2000/svg">
<path d="M15.5579 11.7904L14.9183 11.3988H14.9183L15.5579 11.7904ZM14.842 12.9596L15.4816 13.3512L15.4816 13.3512L14.842 12.9596ZM2.44207 6.20956L1.80246 5.8179L1.80246 5.8179L2.44207 6.20956ZM3.15798 5.04043L3.79759 5.43209L3.79759 5.43209L3.15798 5.04043ZM5.11389 4.54629L5.47247 3.88757L5.47247 3.88757L5.11389 4.54629ZM2.96615 8.0537L2.60757 8.71242H2.60757L2.96615 8.0537ZM12.8861 13.4537L12.5275 14.1124L12.5275 14.1124L12.8861 13.4537ZM15.0338 9.94629L14.6753 10.605L15.0338 9.94629ZM3.15798 12.9596L2.51837 13.3512H2.51837L3.15798 12.9596ZM2.44207 11.7904L3.08168 11.3988H3.08168L2.44207 11.7904ZM14.842 5.04044L15.4816 4.64878L15.4816 4.64878L14.842 5.04044ZM15.5579 6.20957L14.9183 6.60123L14.9183 6.60123L15.5579 6.20957ZM15.0338 8.05371L15.3924 8.71243V8.71243L15.0338 8.05371ZM12.8861 4.5463L13.2447 5.20503V5.20503L12.8861 4.5463ZM2.96615 9.9463L3.32473 10.605H3.32473L2.96615 9.9463ZM5.11389 13.4537L4.75531 12.795L4.7553 12.795L5.11389 13.4537ZM12.81 4.58773L12.4514 3.92901V3.92901L12.81 4.58773ZM5.19 4.58773L4.83142 5.24645L4.83142 5.24645L5.19 4.58773ZM12.81 13.4123L13.1686 12.7535L13.1686 12.7535L12.81 13.4123ZM5.19 13.4123L5.54858 14.071L5.54858 14.071L5.19 13.4123ZM8.28409 2.25V3H9.71591V2.25V1.5H8.28409V2.25ZM9.71591 15.75V15H8.28409V15.75V16.5H9.71591V15.75ZM8.28409 15.75V15C7.86534 15 7.60226 14.6904 7.60226 14.4H6.85226H6.10226C6.10226 15.6008 7.12129 16.5 8.28409 16.5V15.75ZM11.1477 14.4H10.3977C10.3977 14.6904 10.1347 15 9.71591 15V15.75V16.5C10.8787 16.5 11.8977 15.6008 11.8977 14.4H11.1477ZM9.71591 2.25V3C10.1347 3 10.3977 3.3096 10.3977 3.6H11.1477H11.8977C11.8977 2.39923 10.8787 1.5 9.71591 1.5V2.25ZM8.28409 2.25V1.5C7.12129 1.5 6.10226 2.39923 6.10226 3.6H6.85226H7.60226C7.60226 3.3096 7.86534 3 8.28409 3V2.25ZM15.5579 11.7904L14.9183 11.3988L14.2024 12.5679L14.842 12.9596L15.4816 13.3512L16.1975 12.1821L15.5579 11.7904ZM2.44207 6.20956L3.08168 6.60122L3.79759 5.43209L3.15798 5.04043L2.51837 4.64877L1.80246 5.8179L2.44207 6.20956ZM3.15798 5.04043L3.79759 5.43209C3.97443 5.14329 4.4042 5.01389 4.75531 5.20502L5.11389 4.54629L5.47247 3.88757C4.45392 3.33311 3.1323 3.64617 2.51837 4.64877L3.15798 5.04043ZM2.96615 8.0537L3.32473 7.39497C2.99702 7.21658 2.92207 6.86187 3.08168 6.60122L2.44207 6.20956L1.80246 5.8179C1.17129 6.84864 1.56562 8.14523 2.60757 8.71242L2.96615 8.0537ZM14.842 12.9596L14.2024 12.5679C14.0256 12.8567 13.5958 12.9861 13.2447 12.795L12.8861 13.4537L12.5275 14.1124C13.5461 14.6669 14.8677 14.3538 15.4816 13.3512L14.842 12.9596ZM15.5579 11.7904L16.1975 12.1821C16.8287 11.1514 16.4344 9.85476 15.3924 9.28757L15.0338 9.94629L14.6753 10.605C15.003 10.7834 15.0779 11.1381 14.9183 11.3988L15.5579 11.7904ZM3.15798 12.9596L3.79759 12.5679L3.08168 11.3988L2.44207 11.7904L1.80246 12.1821L2.51837 13.3512L3.15798 12.9596ZM14.842 5.04044L14.2024 5.4321L14.9183 6.60123L15.5579 6.20957L16.1975 5.81791L15.4816 4.64878L14.842 5.04044ZM15.5579 6.20957L14.9183 6.60123C15.0779 6.86188 15.003 7.21659 14.6753 7.39498L15.0338 8.05371L15.3924 8.71243C16.4344 8.14524 16.8287 6.84865 16.1975 5.81791L15.5579 6.20957ZM12.8861 4.5463L13.2447 5.20503C13.5958 5.0139 14.0256 5.1433 14.2024 5.4321L14.842 5.04044L15.4816 4.64878C14.8677 3.64618 13.5461 3.33312 12.5275 3.88758L12.8861 4.5463ZM2.44207 11.7904L3.08168 11.3988C2.92207 11.1381 2.99702 10.7834 3.32473 10.605L2.96615 9.9463L2.60757 9.28758C1.56562 9.85477 1.17129 11.1514 1.80246 12.1821L2.44207 11.7904ZM3.15798 12.9596L2.51837 13.3512C3.1323 14.3538 4.45392 14.6669 5.47247 14.1124L5.11389 13.4537L4.7553 12.795C4.40419 12.9861 3.97443 12.8567 3.79759 12.5679L3.15798 12.9596ZM12.81 4.58773L13.1686 5.24646L13.2447 5.20503L12.8861 4.5463L12.5275 3.88758L12.4514 3.92901L12.81 4.58773ZM5.11389 4.54629L4.7553 5.20502L4.83142 5.24645L5.19 4.58773L5.54858 3.929L5.47247 3.88757L5.11389 4.54629ZM12.8861 13.4537L13.2447 12.795L13.1686 12.7535L12.81 13.4123L12.4514 14.071L12.5275 14.1124L12.8861 13.4537ZM5.19 13.4123L4.83142 12.7535L4.75531 12.795L5.11389 13.4537L5.47246 14.1124L5.54858 14.071L5.19 13.4123ZM2.96615 8.0537L2.60757 8.71242C2.83541 8.83645 2.83541 9.16355 2.60757 9.28758L2.96615 9.9463L3.32473 10.605C4.59635 9.91281 4.59636 8.08719 3.32473 7.39497L2.96615 8.0537ZM5.19 13.4123L5.54858 14.071C5.79819 13.9351 6.10226 14.1158 6.10226 14.4H6.85226H7.60226C7.60226 12.9778 6.08056 12.0736 4.83142 12.7535L5.19 13.4123ZM11.1477 14.4H11.8977C11.8977 14.1158 12.2018 13.9351 12.4514 14.071L12.81 13.4123L13.1686 12.7535C11.9194 12.0736 10.3977 12.9778 10.3977 14.4H11.1477ZM15.0338 9.94629L15.3924 9.28757C15.1646 9.16355 15.1646 8.83645 15.3924 8.71243L15.0338 8.05371L14.6753 7.39498C13.4037 8.08719 13.4037 9.91281 14.6753 10.605L15.0338 9.94629ZM5.19 4.58773L4.83142 5.24645C6.08056 5.92643 7.60226 5.02222 7.60226 3.6H6.85226H6.10226C6.10226 3.8842 5.79819 4.06488 5.54858 3.929L5.19 4.58773ZM12.81 4.58773L12.4514 3.92901C12.2018 4.06488 11.8977 3.8842 11.8977 3.6H11.1477H10.3977C10.3977 5.02223 11.9194 5.92644 13.1686 5.24646L12.81 4.58773ZM11.25 9H10.5C10.5 9.82843 9.82843 10.5 9.00001 10.5V11.25V12C10.6569 12 12 10.6569 12 9H11.25ZM9.00001 11.25V10.5C8.17158 10.5 7.50001 9.82843 7.50001 9H6.75001H6.00001C6.00001 10.6569 7.34315 12 9.00001 12V11.25ZM6.75001 9H7.50001C7.50001 8.17157 8.17158 7.5 9.00001 7.5V6.75V6C7.34315 6 6.00001 7.34315 6.00001 9H6.75001ZM9.00001 6.75V7.5C9.82843 7.5 10.5 8.17157 10.5 9H11.25H12C12 7.34315 10.6569 6 9.00001 6V6.75Z" fill="#A6A6A6"/>
</svg>
