<svg width="18" height="18" viewBox="0 0 18 18" fill="none" xmlns="http://www.w3.org/2000/svg">
<path d="M15.0018 8.71583V13.5C15.0018 14.3284 14.3302 15 13.5018 15H4.50175C3.67332 15 3.00175 14.3284 3.00175 13.5V8.71583M5.62675 7.3125C5.62675 8.24445 4.87123 9 3.93925 9C3.07223 9 2.35793 8.34615 2.26257 7.50465C2.24818 7.37766 2.26807 7.24993 2.30033 7.1263L3.08422 4.12137C3.25653 3.46088 3.85305 3 4.53564 3H13.4679C14.1504 3 14.747 3.46088 14.9193 4.12137L15.7032 7.1263C15.7354 7.24993 15.7554 7.37766 15.741 7.50465C15.6456 8.34615 14.9313 9 14.0643 9C13.1323 9 12.3768 8.24445 12.3768 7.3125M5.62675 7.3125C5.62675 8.24445 6.38227 9 7.31425 9C8.2462 9 9.00175 8.24445 9.00175 7.3125M5.62675 7.3125L6.00175 3M12.3768 7.3125C12.3768 8.24445 11.6212 9 10.6893 9C9.7573 9 9.00175 8.24445 9.00175 7.3125M12.3768 7.3125L12.0018 3M9.00175 7.3125V3" stroke="#A6A6A6" stroke-width="1.5" stroke-linecap="round" stroke-linejoin="round"/>
</svg>
