<svg width="48" height="48" viewBox="0 0 48 48" fill="none" xmlns="http://www.w3.org/2000/svg">
<rect width="48" height="48" rx="12" fill="white"/>
<path d="M31.9997 23.6211V30C31.9997 31.1046 31.1043 32 29.9997 32H17.9997C16.8952 32 15.9997 31.1046 15.9997 30V23.6211M19.4997 21.75C19.4997 22.9926 18.4924 24 17.2497 24C16.0937 24 15.1413 23.1282 15.0142 22.0062C14.995 21.8369 15.0215 21.6666 15.0645 21.5017L16.1097 17.4952C16.3394 16.6145 17.1348 16 18.0449 16H29.9545C30.8646 16 31.66 16.6145 31.8897 17.4952L32.9349 21.5017C32.9779 21.6666 33.0045 21.8369 32.9853 22.0062C32.8581 23.1282 31.9057 24 30.7497 24C29.5071 24 28.4997 22.9926 28.4997 21.75M19.4997 21.75C19.4997 22.9926 20.5071 24 21.7497 24C22.9923 24 23.9997 22.9926 23.9997 21.75M19.4997 21.75L19.9997 16M28.4997 21.75C28.4997 22.9926 27.4923 24 26.2497 24C25.0071 24 23.9997 22.9926 23.9997 21.75M28.4997 21.75L27.9997 16M23.9997 21.75V16" stroke="black" stroke-width="1.5" stroke-linecap="round" stroke-linejoin="round"/>
</svg>
