<svg width="48" height="48" viewBox="0 0 48 48" fill="none" xmlns="http://www.w3.org/2000/svg">
<rect width="48" height="48" rx="12" fill="#F2FF00"/>
<g clip-path="url(#clip0_1607_9129)">
<path d="M24.0001 17.288L25.5561 20.608L26.1601 21.8933L27.5655 22.1093L31.2321 22.6733L28.4908 25.4893L27.5575 26.452L27.7735 27.7773L28.4001 31.6173L25.2895 29.9L24.0001 29.1867L22.7068 29.9013L19.6001 31.6173L20.2268 27.7813L20.4441 26.448L19.5108 25.484L16.7681 22.6747L20.4308 22.1107L21.8361 21.8933L22.4401 20.6067L24.0001 17.2867M24.0001 12C23.8704 11.9997 23.7428 12.0337 23.6304 12.0985C23.518 12.1634 23.4248 12.2568 23.3601 12.3693L20.0268 19.476L12.5975 20.6187C12.4687 20.6379 12.348 20.6932 12.2494 20.7781C12.1508 20.8631 12.0782 20.9742 12.0401 21.0987C11.9964 21.219 11.9882 21.3494 12.0166 21.4742C12.045 21.599 12.1087 21.7131 12.2001 21.8027L17.6001 27.3493L16.3201 35.176C16.2998 35.3061 16.3162 35.4394 16.3675 35.5607C16.4188 35.682 16.5031 35.7865 16.6107 35.8625C16.7182 35.9385 16.8449 35.9829 16.9764 35.9907C17.1079 35.9985 17.239 35.9694 17.3548 35.9067L24.0001 32.2347L30.6401 35.9067C30.7388 35.9674 30.8523 35.9997 30.9681 36H30.9815C31.1257 36 31.2661 35.9532 31.3815 35.8667C31.4923 35.792 31.5791 35.6867 31.6311 35.5636C31.6832 35.4405 31.6984 35.3049 31.6748 35.1733L30.3988 27.3507L35.7961 21.804C35.8881 21.7142 35.9521 21.5997 35.9805 21.4743C36.0089 21.3489 36.0004 21.218 35.9561 21.0973C35.9178 20.9725 35.8449 20.8611 35.7457 20.7761C35.6466 20.6912 35.5253 20.6361 35.3961 20.6173L27.9668 19.4747L24.6335 12.368C24.5692 12.2567 24.4769 12.1642 24.3658 12.0996C24.2547 12.0351 24.1286 12.0007 24.0001 12Z" fill="black"/>
</g>
<defs>
<clipPath id="clip0_1607_9129">
<rect width="24" height="24" fill="white" transform="translate(12 12)"/>
</clipPath>
</defs>
</svg>
