<svg width="24" height="25" viewBox="0 0 24 25" fill="none" xmlns="http://www.w3.org/2000/svg">
<path fill-rule="evenodd" clip-rule="evenodd" d="M18.1541 5.64445C17.7 2.78518 15.2258 0.598807 12.2388 0.598633C9.19368 0.598633 6.68086 2.87066 6.29837 5.81152H5.66165L5.61684 5.81152C4.57293 5.8115 3.70704 5.81149 3.02883 5.90625C2.31903 6.00549 1.68156 6.225 1.1968 6.7666C0.712121 7.30828 0.564647 7.96613 0.544459 8.68262C0.525344 9.36193 0.620023 10.2137 0.734166 11.2406L0.741725 11.3086L1.05032 14.085L1.0576 14.1505C1.29688 16.3042 1.48487 17.9962 1.80423 19.3115C2.13208 20.6617 2.62001 21.7155 3.52493 22.5254C4.43069 23.3359 5.53684 23.7034 6.92239 23.8799C8.27958 24.0527 10.0045 24.0527 12.2034 24.0527H12.2388H12.2727C14.472 24.0527 16.1968 24.0527 17.5542 23.8799C18.94 23.7034 20.0468 23.3362 20.9527 22.5254C21.8575 21.7155 22.3445 20.6617 22.6724 19.3115C22.9935 17.9889 23.1828 16.2856 23.4239 14.1151L23.4273 14.085L23.7359 11.3086L23.7401 11.2705C23.786 10.8573 23.8288 10.4722 23.8625 10.1151C23.4491 10.7349 22.8503 11.2206 22.1455 11.4929L21.8765 13.9121C21.6291 16.1384 21.4503 17.7343 21.1568 18.9434C20.8685 20.1307 20.492 20.8447 19.9126 21.3633C19.3341 21.8811 18.5796 22.1774 17.3579 22.333C16.1149 22.4913 14.4957 22.4932 12.2388 22.4932C9.98189 22.4932 8.36272 22.4913 7.11965 22.333C5.89802 22.1774 5.14349 21.8809 4.56497 21.3633C3.98555 20.8447 3.60817 20.1308 3.31985 18.9434C3.02629 17.7343 2.84749 16.1384 2.60012 13.9121L2.29153 11.1367C2.16891 10.0332 2.08731 9.28646 2.10305 8.72656C2.11819 8.1892 2.22226 7.95943 2.35891 7.80664C2.49562 7.65391 2.71239 7.52561 3.24465 7.45117C3.79941 7.37366 4.55114 7.37109 5.66165 7.37109H17.2727C17.4065 6.71367 17.7177 6.12074 18.1541 5.64445ZM17.7241 9.98242H5.98294C5.55241 9.98249 5.20377 10.3312 5.20364 10.7617C5.20364 11.1923 5.55233 11.5419 5.98294 11.542H18.4937C18.7245 11.542 18.932 11.4416 19.0749 11.2821C18.5193 10.974 18.0528 10.5246 17.7241 9.98242ZM7.87551 5.81152C8.24427 3.73544 10.0568 2.15918 12.2388 2.15918C14.4207 2.15935 16.2334 3.73549 16.6021 5.81152H7.87551Z" fill="white"/>
</svg>
