<svg width="48" height="48" viewBox="0 0 48 48" fill="none" xmlns="http://www.w3.org/2000/svg">
<rect width="48" height="48" rx="12" fill="#15FD00"/>
<path d="M30.4796 23.9998C29.6406 23.2966 28.574 22.9233 27.4796 22.9498H20.4446C20.1238 22.9579 19.8047 22.9012 19.5064 22.7831C19.2081 22.665 18.9367 22.4879 18.7084 22.2624C18.4801 22.037 18.2997 21.7677 18.1779 21.4709C18.0561 21.174 17.9955 20.8557 17.9996 20.5348C17.9918 20.41 17.9918 20.2847 17.9996 20.1598C18.0942 19.5866 18.3948 19.0675 18.845 18.7002C19.2952 18.3328 19.864 18.1425 20.4446 18.1648H27.3746C27.9399 18.1643 28.487 18.3647 28.9183 18.73C29.3496 19.0954 29.6372 19.6022 29.7296 20.1598H31.9796C31.8854 19.0032 31.3594 17.9244 30.5062 17.1379C29.653 16.3514 28.535 15.9148 27.3746 15.9148H25.0046V12.4648H23.1296V15.9148H20.4446C19.2842 15.9148 18.1662 16.3514 17.313 17.1379C16.4598 17.9244 15.9338 19.0032 15.8396 20.1598C15.8321 20.2847 15.8321 20.41 15.8396 20.5348C15.8396 21.1396 15.9587 21.7384 16.1901 22.2971C16.4216 22.8558 16.7608 23.3635 17.1884 23.7911C18.052 24.6547 19.2233 25.1398 20.4446 25.1398H27.5546C27.8728 25.1318 28.1894 25.1876 28.4857 25.3039C28.7821 25.4201 29.0521 25.5945 29.28 25.8168C29.5078 26.0391 29.6889 26.3047 29.8125 26.5981C29.9361 26.8914 29.9997 27.2065 29.9996 27.5248C30.0152 27.6945 30.0152 27.8652 29.9996 28.0348C29.8805 28.5626 29.5855 29.0342 29.163 29.3722C28.7405 29.7102 28.2156 29.8945 27.6746 29.8948H20.6246C20.0835 29.8945 19.5587 29.7102 19.1362 29.3722C18.7137 29.0342 18.4187 28.5626 18.2996 28.0348H16.0346C16.1635 29.1619 16.7025 30.2021 17.549 30.9573C18.3955 31.7125 19.4902 32.1298 20.6246 32.1298H23.1296V35.5348H25.0046V32.1298H27.5546C28.689 32.1298 29.7837 31.7125 30.6302 30.9573C31.4766 30.2021 32.0157 29.1619 32.1446 28.0348V27.5248C32.1428 26.8511 31.9927 26.186 31.7049 25.5768C31.4172 24.9676 30.9988 24.4292 30.4796 23.9998Z" fill="black"/>
</svg>
