<svg width="18" height="18" viewBox="0 0 18 18" fill="none" xmlns="http://www.w3.org/2000/svg">
<path d="M14.9946 4.93573H14.7796V3.00835C14.7774 2.61147 14.618 2.23148 14.3362 1.95083C14.0544 1.67019 13.6728 1.51153 13.2742 1.50928C13.206 1.49691 13.136 1.49691 13.0678 1.50928L2.83138 4.93573H2.73675H2.59912L2.45289 4.98712H2.33246L2.19483 5.06422L2.0916 5.20984L1.97117 5.31264L1.87655 5.3983L1.77333 5.52679C1.7458 5.55137 1.72255 5.58032 1.70451 5.61245C1.67258 5.66198 1.64385 5.71348 1.61849 5.76664L1.56688 5.86087C1.54293 5.92239 1.52282 5.98532 1.50666 6.04932C1.51054 6.08061 1.51054 6.11226 1.50666 6.14355C1.49778 6.24043 1.49778 6.33791 1.50666 6.4348V15.0009C1.50847 15.3877 1.65948 15.7589 1.92846 16.0379C2.19743 16.317 2.56381 16.4824 2.95181 16.5H14.9946C15.3932 16.4977 15.7748 16.339 16.0566 16.0584C16.3385 15.7778 16.4978 15.3978 16.5 15.0009V6.4348C16.4978 6.03791 16.3385 5.65792 16.0566 5.37728C15.7748 5.09663 15.3932 4.93797 14.9946 4.93573ZM13.3431 2.80277C13.3855 2.81833 13.4221 2.84629 13.4482 2.88299C13.4742 2.91968 13.4886 2.96339 13.4893 3.00835V4.93573H6.92594L13.3431 2.80277ZM15.2097 15.0009C15.2097 15.0577 15.1871 15.1122 15.1467 15.1523C15.1064 15.1925 15.0517 15.2151 14.9946 15.2151H2.95181C2.89477 15.2151 2.84007 15.1925 2.79974 15.1523C2.75941 15.1122 2.73675 15.0577 2.73675 15.0009V6.4348C2.73675 6.378 2.75941 6.32353 2.79974 6.28336C2.84007 6.24321 2.89477 6.22064 2.95181 6.22064H14.9946C15.0517 6.22064 15.1064 6.24321 15.1467 6.28336C15.1871 6.32353 15.2097 6.378 15.2097 6.4348V15.0009Z" fill="#A6A6A6" stroke="black" stroke-width="0.5"/>
<path d="M13.125 12.1875C13.6428 12.1875 14.0625 11.7678 14.0625 11.25C14.0625 10.7322 13.6428 10.3125 13.125 10.3125C12.6072 10.3125 12.1875 10.7322 12.1875 11.25C12.1875 11.7678 12.6072 12.1875 13.125 12.1875Z" fill="#A6A6A6"/>
</svg>
