<svg width="32" height="32" viewBox="0 0 32 32" fill="none" xmlns="http://www.w3.org/2000/svg">
<rect width="32" height="32" rx="8" fill="#D71ECB"/>
<g clip-path="url(#clip0_1263_25967)">
<path d="M24.8847 15.9952C24.0984 15.9952 23.8385 15.4163 23.6978 15.1406C23.3653 14.4901 22.8563 13.5242 22.0045 12.92C21.8684 12.8234 21.6816 12.87 21.5968 13.0138C21.4209 13.3119 20.8806 13.2716 20.877 12.9255C20.8636 11.6434 21.1231 10.5974 21.3668 9.80176C21.5535 9.19235 21.0593 8.71018 20.5103 9.0339C20.0325 9.31567 19.558 9.68525 19.1689 10.1221C18.6837 10.6667 17.8052 10.9975 17.0758 10.9975H14.173C13.3076 11.0058 12.4523 11.1849 11.6564 11.5247C10.8604 11.8644 10.1394 12.358 9.53478 12.9772C8.93015 13.5964 8.45379 14.3289 8.13308 15.1327C7.81237 15.9365 7.65362 16.7958 7.66595 17.6611C7.66595 19.4053 8.50806 20.9896 9.87994 22.1757C10.0757 22.3457 10.4755 22.7688 10.3414 23.451C10.2345 23.9948 11.249 25.5194 11.7924 25.6282L12.7918 25.8281C13.2465 25.9191 13.6929 25.6368 13.7757 25.1805C13.7933 25.0836 13.8105 24.9823 13.8265 24.8795C13.9164 24.2981 14.3837 24.2156 14.9335 24.2673C15.2816 24.2989 15.6348 24.3248 15.9955 24.3248C16.4353 24.3248 16.8659 24.2939 17.2865 24.239C17.5323 24.2065 18.0187 24.1957 18.1312 24.7112C18.2742 25.3709 19.0044 25.8671 19.6663 25.7347L20.366 25.5947C21.2714 25.4135 21.8488 24.5266 21.6664 23.6214C21.6472 23.526 21.6311 23.4439 21.6196 23.3819C21.5379 22.9429 21.8594 22.6072 22.0169 22.4689C22.5525 21.9992 22.9989 21.4602 23.2355 20.933C23.3771 20.6156 23.8627 20.16 24.5465 20.16C25.3442 20.16 25.9909 19.5133 25.9909 18.7157V17.1014C25.9909 16.4905 25.4956 15.9952 24.8847 15.9952ZM21.4097 18.4941C21.2455 18.494 21.083 18.4617 20.9314 18.3988C20.7798 18.3359 20.642 18.2438 20.526 18.1277C20.41 18.0116 20.318 17.8738 20.2552 17.7222C20.1924 17.5705 20.1602 17.408 20.1602 17.2438C20.1603 17.0797 20.1927 16.9172 20.2555 16.7656C20.3184 16.614 20.4105 16.4762 20.5266 16.3602C20.6427 16.2442 20.7805 16.1521 20.9322 16.0894C21.0838 16.0266 21.2464 15.9944 21.4105 15.9944C21.742 15.9945 22.0598 16.1263 22.2941 16.3608C22.5285 16.5952 22.66 16.9132 22.6599 17.2447C22.6598 17.5761 22.528 17.894 22.2935 18.1283C22.0591 18.3626 21.7411 18.4942 21.4097 18.4941Z" fill="white"/>
<path d="M8.47944 17.4294C8.30161 17.6588 8.04493 17.6365 7.7547 17.6386C7.11645 17.6431 6 17.4066 6 15.6964C6 14.0946 7.93911 13.9072 7.93911 15.145C7.88747 14.7593 6.83295 14.7327 6.83295 15.5789C6.83295 15.6927 6.8508 15.7946 6.88261 15.8845C7.31777 17.1146 9.27887 16.3982 8.47944 17.4294ZM16.076 10.1648C16.8666 10.1648 17.6613 9.70588 17.6613 8.91533C17.6613 8.14214 17.3542 7.40061 16.8074 6.85388C16.2607 6.30715 15.5192 6 14.746 6C13.9728 6 13.2313 6.30715 12.6845 6.85388C12.1378 7.40061 11.8307 8.14214 11.8307 8.91533C11.8307 9.70588 12.6254 10.1648 13.416 10.1648H16.076Z" fill="white"/>
</g>
<defs>
<clipPath id="clip0_1263_25967">
<rect width="20" height="20" fill="white" transform="translate(6 6)"/>
</clipPath>
</defs>
</svg>
