<svg width="32" height="32" viewBox="0 0 32 32" fill="none" xmlns="http://www.w3.org/2000/svg">
<rect width="32" height="32" rx="8" fill="#2BD61A"/>
<g clip-path="url(#clip0_1263_25952)">
<path d="M24.75 23.4999H22.25V14.7499H24.75C25.2931 14.7499 25.7741 14.3983 25.9403 13.8821C26.1062 13.3646 25.9184 12.798 25.4766 12.483L16.7266 6.23299C16.2919 5.92299 15.7084 5.92299 15.2741 6.23299L6.52406 12.483C6.08219 12.798 5.89406 13.3642 6.06031 13.8821C6.22594 14.3983 6.70687 14.7499 7.25 14.7499H9.75V23.4999H7.25C6.55906 23.4999 6 24.0589 6 24.7499V25.9999H26V24.7499C26 24.0589 25.4409 23.4999 24.75 23.4999ZM14.75 23.4999H12.25V14.7499H14.75V23.4999ZM19.75 23.4999H17.25V14.7499H19.75V23.4999Z" fill="white"/>
</g>
<defs>
<clipPath id="clip0_1263_25952">
<rect width="20" height="20" fill="white" transform="translate(6 6)"/>
</clipPath>
</defs>
</svg>
