<svg width="32" height="32" viewBox="0 0 32 32" fill="none" xmlns="http://www.w3.org/2000/svg">
<rect width="32" height="32" rx="8" fill="#12B3BF"/>
<path d="M21.4 16.0002C20.7008 15.4141 19.812 15.1031 18.9 15.1252H13.0375C12.7702 15.1319 12.5043 15.0847 12.2557 14.9863C12.0071 14.8878 11.7809 14.7402 11.5907 14.5524C11.4004 14.3645 11.2501 14.1401 11.1486 13.8927C11.0471 13.6454 10.9965 13.3801 11 13.1127C10.9935 13.0086 10.9935 12.9043 11 12.8002C11.0788 12.3225 11.3293 11.8899 11.7045 11.5838C12.0796 11.2777 12.5536 11.1191 13.0375 11.1377H18.8125C19.2836 11.1373 19.7395 11.3042 20.0989 11.6087C20.2468 11.734 20.3744 11.8792 20.4787 12.0391C20.7381 12.4365 21.123 12.8002 21.5976 12.8002C22.1645 12.8002 22.62 12.3075 22.4232 11.7759C22.2138 11.2104 21.8727 10.6973 21.4222 10.2819C20.7111 9.6265 19.7795 9.26264 18.8125 9.2627H17.8375C17.2852 9.2627 16.8375 8.81498 16.8375 8.26269V7.16895C16.8375 6.73747 16.4877 6.3877 16.0562 6.3877C15.6248 6.3877 15.275 6.73747 15.275 7.16895V8.26269C15.275 8.81498 14.8273 9.2627 14.275 9.2627H13.0375C12.0705 9.26264 11.1388 9.6265 10.4278 10.2819C9.71681 10.9374 9.27848 11.8364 9.19999 12.8002C9.19375 12.9043 9.19375 13.0086 9.19999 13.1127C9.19999 13.6166 9.29925 14.1157 9.4921 14.5812C9.68495 15.0468 9.96762 15.4699 10.324 15.8262C11.0436 16.5459 12.0197 16.9502 13.0375 16.9502H18.9625C19.2277 16.9435 19.4915 16.99 19.7384 17.0869C19.9854 17.1838 20.2104 17.3291 20.4003 17.5143C20.5902 17.6996 20.7411 17.9209 20.8441 18.1654C20.9471 18.4098 21.0001 18.6724 21 18.9377C21.013 19.0791 21.013 19.2213 21 19.3627C20.9007 19.8025 20.6549 20.1955 20.3028 20.4772C19.9507 20.7588 19.5134 20.9124 19.0625 20.9127H13.1875C12.7366 20.9124 12.2992 20.7588 11.9472 20.4772C11.8017 20.3608 11.6744 20.2255 11.5681 20.0757C11.3021 19.701 10.9237 19.3627 10.4642 19.3627C9.87712 19.3627 9.41288 19.8839 9.64153 20.4246C9.86177 20.9454 10.1958 21.4156 10.6245 21.7981C11.3299 22.4274 12.2422 22.7752 13.1875 22.7752H14.275C14.8273 22.7752 15.275 23.2229 15.275 23.7752V24.8314C15.275 25.2629 15.6248 25.6127 16.0562 25.6127C16.4877 25.6127 16.8375 25.2629 16.8375 24.8314V23.7752C16.8375 23.2229 17.2852 22.7752 17.8375 22.7752H18.9625C19.9078 22.7752 20.8201 22.4274 21.5255 21.7981C22.2309 21.1687 22.6801 20.3019 22.7875 19.3627V18.9377C22.786 18.3762 22.6609 17.822 22.4211 17.3143C22.1813 16.8066 21.8327 16.358 21.4 16.0002Z" fill="white"/>
</svg>
