<svg width="38" height="38" viewBox="0 0 38 38" fill="none" xmlns="http://www.w3.org/2000/svg">
<rect width="38" height="38" rx="19" fill="#FFD700"/>
<g clip-path="url(#clip0_1688_5402)">
<path d="M25.1376 18.9528C24.4938 18.4679 23.5767 18.2739 23.5767 18.2739C23.5767 18.2739 24.3528 17.824 24.6699 17.3745C24.9874 16.9248 25.1461 16.2281 25.1726 15.8666C25.199 15.5049 25.2608 13.9884 24.0791 13.1156C23.1651 12.4402 22.1176 12.1721 20.7111 12.0849V9.02441H18.8241V12.0487C18.4031 12.0487 17.911 12.0487 17.3868 12.0487V9.02441H15.5V12.0487C13.5738 12.0487 11.7878 12.0487 11.7878 12.0487V14.0083C11.7878 14.0083 12.5814 14.0083 12.879 14.0083C13.1764 14.0083 13.7055 14.0413 13.9303 14.2929C14.1552 14.5441 14.1949 14.6765 14.1949 15.1656C14.1949 15.6549 14.195 22.7885 14.195 22.9737C14.195 23.1588 14.1597 23.388 14.0009 23.538C13.8423 23.688 13.6836 23.723 13.3043 23.723C12.9251 23.723 12.1758 23.723 12.1758 23.723L11.7878 25.9894C11.7878 25.9894 13.6327 25.9894 15.5 25.9894V29.0051H17.3869V25.9894C17.9667 25.9894 18.4715 25.9894 18.8242 25.9894V29.0051H20.7111V25.9396C21.1989 25.9111 21.6537 25.8742 21.919 25.8394C22.457 25.7691 23.6737 25.628 24.8114 24.8343C25.9487 24.0406 26.2042 22.7972 26.2308 21.5453C26.2576 20.2932 25.7808 19.4377 25.1376 18.9528ZM17.3868 14.1826C17.3868 14.1826 17.9864 14.1298 18.5772 14.1384C19.1681 14.1472 19.6881 14.1649 20.4643 14.403C21.2401 14.6412 21.6983 15.2232 21.7163 15.911C21.7338 16.5988 21.4337 17.0572 20.9049 17.3482C20.3759 17.6391 19.6445 17.7979 18.9564 17.8241C18.2687 17.8506 17.3868 17.8241 17.3868 17.8241V14.1826ZM21.6104 23.2028C21.1783 23.441 20.3141 23.6526 19.4766 23.7142C18.6389 23.776 17.3868 23.7495 17.3868 23.7495V19.7021C17.3868 19.7021 18.5861 19.6406 19.5208 19.7021C20.4554 19.7641 21.2401 20.002 21.5926 20.1786C21.9453 20.3548 22.5627 20.7427 22.5627 21.6687C22.5627 22.5944 22.0421 22.9648 21.6104 23.2028Z" fill="#181818"/>
</g>
<defs>
<clipPath id="clip0_1688_5402">
<rect width="20" height="20" fill="white" transform="translate(9 9)"/>
</clipPath>
</defs>
</svg>
