<svg width="48" height="48" viewBox="0 0 48 48" fill="none" xmlns="http://www.w3.org/2000/svg">
<g clip-path="url(#clip0_1449_51381)">
<path d="M0 24C0 37.2555 10.7445 48 24 48C37.2555 48 48 37.2555 48 24C48 10.7445 37.2555 0 24 0C10.7445 0 0 10.7445 0 24Z" fill="#FFD700"/>
<path d="M36.5705 16.0566H11.4299C10.0878 16.0566 9 17.1449 9 18.4866V21.8146L21.393 24.4283V22.7713H26.5359V24.4283L39 21.7979V18.4866C39 17.1449 37.9122 16.0566 36.5705 16.0566Z" fill="black"/>
<path d="M26.5359 29.6284H21.393V26.2876L9.85742 23.9965V33.7699C9.85742 35.1115 10.9447 36.1997 12.2864 36.1997H35.7136C37.0553 36.1997 38.1431 35.1115 38.1431 33.7699V23.9795L26.5359 26.2875V29.6284Z" fill="black"/>
<path d="M25.2499 24.0571H22.6787V28.3422H25.2499V24.0571Z" fill="black"/>
<path d="M20.3542 12.2307C20.3547 12.1309 20.3916 12.0516 20.4568 11.9841C20.5228 11.9195 20.6027 11.8835 20.7015 11.8825H27.2978C27.3966 11.8835 27.477 11.9195 27.543 11.9841C27.6076 12.0516 27.6441 12.1309 27.6445 12.2307V13.9666H29.7273V12.2307C29.7278 11.5621 29.454 10.9489 29.0158 10.5122C28.5795 10.0736 27.965 9.79934 27.2978 9.79981H20.7015C20.0339 9.79934 19.4197 10.0736 18.9835 10.5122C18.5458 10.9489 18.2711 11.5621 18.2725 12.2307V13.9666H20.3542V12.2307Z" fill="black"/>
</g>
<defs>
<clipPath id="clip0_1449_51381">
<rect width="48" height="48" fill="white"/>
</clipPath>
</defs>
</svg>
