<svg width="18" height="18" viewBox="0 0 18 18" fill="none" xmlns="http://www.w3.org/2000/svg">
<path d="M5.6665 5.6665V3.99984C5.6665 2.15889 7.15889 0.666504 8.99984 0.666504L13.9998 0.666504C15.8408 0.666504 17.3332 2.15889 17.3332 3.99984V8.99984C17.3332 10.8408 15.8408 12.3332 13.9998 12.3332H12.3332M5.6665 5.6665H3.99984C2.15889 5.6665 0.666504 7.15889 0.666504 8.99984V13.9998C0.666504 15.8408 2.15889 17.3332 3.99984 17.3332H8.99984C10.8408 17.3332 12.3332 15.8408 12.3332 13.9998V12.3332M5.6665 5.6665H8.99984C10.8408 5.6665 12.3332 7.15889 12.3332 8.99984V12.3332" stroke="#181818" stroke-width="1.2" stroke-linecap="round" stroke-linejoin="round"/>
</svg>
