<svg width="49" height="48" viewBox="0 0 49 48" fill="none" xmlns="http://www.w3.org/2000/svg">
<g clip-path="url(#clip0_1449_51397)">
<path d="M0.333008 24C0.333008 37.2555 11.0775 48 24.333 48C37.5885 48 48.333 37.2555 48.333 24C48.333 10.7445 37.5885 0 24.333 0C11.0775 0 0.333008 10.7445 0.333008 24Z" fill="#FFD700"/>
<path d="M35.6801 17.1115C35.6002 16.8319 35.2399 16.7521 35.0004 16.9517L30.9621 20.985C30.6418 21.3045 30.1624 21.3045 29.8422 20.985L27.0033 18.1498C26.6835 17.8303 26.6835 17.3511 27.0033 17.0316L31.0816 12.9584C31.2816 12.7587 31.2016 12.3993 30.9217 12.2795C30.2424 12.1198 29.5227 12 28.803 12C24.5648 12 21.1662 15.6739 21.646 19.9867C21.7259 20.6656 21.8859 21.2646 22.1258 21.8636L12.8097 31.208C11.7301 32.2862 11.7301 34.0832 12.8097 35.1614C13.3694 35.7205 14.0891 36 14.8088 36C15.5285 36 16.2482 35.7209 16.808 35.1614L26.1241 25.8569C26.7239 26.0965 27.364 26.2562 28.0033 26.3361C32.3615 26.8153 36 23.421 36 19.188C36 18.4692 35.88 17.7504 35.6801 17.1115Z" fill="black"/>
</g>
<defs>
<clipPath id="clip0_1449_51397">
<rect width="48" height="48" fill="white" transform="translate(0.333008)"/>
</clipPath>
</defs>
</svg>
