<svg width="49" height="48" viewBox="0 0 49 48" fill="none" xmlns="http://www.w3.org/2000/svg">
<g clip-path="url(#clip0_1449_51372)">
<path d="M0.333008 24C0.333008 37.2555 11.0775 48 24.333 48C37.5885 48 48.333 37.2555 48.333 24C48.333 10.7445 37.5885 0 24.333 0C11.0775 0 0.333008 10.7445 0.333008 24Z" fill="#FFD700"/>
<path d="M35.7835 34.2611C35.9909 34.2611 36.1871 34.1677 36.3178 34.0065C36.4484 33.8453 36.4993 33.6339 36.4565 33.431L36.0233 31.3811C36.27 31.1425 36.4251 30.8093 36.4251 30.4388C36.4251 30.0488 36.2514 29.7029 35.9818 29.4626V22.344L34.2453 23.4185V29.4626C33.9757 29.7029 33.802 30.0488 33.802 30.4388C33.802 30.8093 33.9571 31.1425 34.2038 31.3811L33.7706 33.431C33.7277 33.634 33.7787 33.8454 33.9093 34.0065C34.0399 34.1676 34.2362 34.2611 34.4436 34.2611H35.7835ZM36.372 18.19L25.0757 11.1972C24.7448 10.9934 24.3719 10.8911 23.9989 10.8911C23.626 10.8911 23.2528 10.9933 22.9239 11.1972L11.6274 18.19C11.3258 18.3766 11.1426 18.7063 11.1426 19.0611C11.1426 19.4159 11.3258 19.7457 11.6274 19.9326L22.9239 26.9255C23.2527 27.1295 23.6259 27.2316 23.9989 27.2316C24.3718 27.2316 24.7448 27.1294 25.0756 26.9255L36.372 19.9326C36.6737 19.7458 36.8569 19.4159 36.8569 19.0611C36.8569 18.7063 36.6737 18.3765 36.372 18.19ZM23.9989 28.9679C23.2952 28.9679 22.6084 28.7725 22.0098 28.4019L15.4205 24.3226V31.3468C15.4205 33.4257 19.263 35.1086 23.9989 35.1086C28.7365 35.1086 32.5786 33.4257 32.5786 31.3468V24.3226L25.9896 28.4019C25.391 28.7725 24.7026 28.9679 23.9989 28.9679Z" fill="black"/>
</g>
<defs>
<clipPath id="clip0_1449_51372">
<rect width="48" height="48" fill="white" transform="translate(0.333008)"/>
</clipPath>
</defs>
</svg>
