<svg width="48" height="48" viewBox="0 0 48 48" fill="none" xmlns="http://www.w3.org/2000/svg">
<g clip-path="url(#clip0_55_6076)">
<circle cx="23.666" cy="24" r="24" fill="#FFD700"/>
<path d="M11.25 23.988C11.25 31.9751 17.2552 35.8513 21.023 37.4972C22.045 37.9436 22.556 38.1668 24 38.1668V18.3335L11.25 22.5835V23.988Z" fill="black"/>
<path opacity="0.3" d="M26.977 37.4972C30.7448 35.8513 36.75 31.9751 36.75 23.988V22.5835L24 18.3335V38.1668C25.444 38.1668 25.955 37.9436 26.977 37.4972Z" fill="black"/>
<path opacity="0.3" d="M19.5201 10.9735L18.7086 11.2513C14.4493 12.7093 12.3196 13.4383 11.7848 14.2002C11.25 14.9622 11.25 17.2272 11.25 21.7572V22.5835L24 18.3335V9.8335C22.8505 9.8335 21.7404 10.2135 19.5201 10.9735Z" fill="black"/>
<path d="M29.2914 11.2513L28.4799 10.9735C26.2596 10.2135 25.1495 9.8335 24 9.8335V18.3335L36.75 22.5835V21.7572C36.75 17.2272 36.75 14.9622 36.2152 14.2002C35.6804 13.4383 33.5507 12.7093 29.2914 11.2513Z" fill="black"/>
</g>
<defs>
<clipPath id="clip0_55_6076">
<rect width="48" height="48" fill="white"/>
</clipPath>
</defs>
</svg>
