<svg width="48" height="48" viewBox="0 0 48 48" fill="none" xmlns="http://www.w3.org/2000/svg">
<g clip-path="url(#clip0_53_6043)">
<path d="M0 24C0 37.2555 10.7445 48 24 48C37.2555 48 48 37.2555 48 24C48 10.7445 37.2555 0 24 0C10.7445 0 0 10.7445 0 24Z" fill="#FFD700"/>
<path d="M38.1714 19.7763L36.8835 18.4884C36.35 17.9549 35.485 17.9549 34.9516 18.4884L34.6296 18.8104L28.1898 12.3707L28.5118 12.0487C29.0453 11.5152 29.0453 10.6503 28.5118 10.1168L27.2239 8.82884C26.6904 8.29533 25.8254 8.29533 25.292 8.82884L18.2083 15.9125C17.6748 16.446 17.6748 17.311 18.2083 17.8444L19.4962 19.1323C20.0297 19.6659 20.8947 19.6659 21.4281 19.1323L21.7501 18.8103L24.004 21.0643L19.3913 25.677L19.0693 25.355C18.3579 24.6437 17.2047 24.6437 16.4934 25.355L9.9622 31.8863C9.25088 32.5976 9.25088 33.7509 9.9622 34.4622L12.5381 37.0381C13.2494 37.7494 14.4027 37.7494 15.114 37.0381L21.6452 30.5069C22.3565 29.7955 22.3565 28.6423 21.6452 27.931L21.3232 27.609L25.936 22.9962L28.1899 25.2501L27.8679 25.5721C27.3344 26.1056 27.3344 26.9706 27.8679 27.504L29.1558 28.7919C29.6893 29.3254 30.5542 29.3254 31.0877 28.7919L38.1714 21.7082C38.7048 21.1748 38.7048 20.3098 38.1714 19.7763Z" fill="black"/>
</g>
<defs>
<clipPath id="clip0_53_6043">
<rect width="48" height="48" fill="white"/>
</clipPath>
</defs>
</svg>
