<svg width="44" height="44" viewBox="0 0 44 44" fill="none" xmlns="http://www.w3.org/2000/svg">
<rect x="0.5" y="0.5" width="43" height="43" rx="21.5" stroke="#717171"/>
<path d="M22 15.4458C24.1205 15.4458 24.4096 15.4458 25.2771 15.4458C26.0482 15.4458 26.4337 15.6386 26.7229 15.7349C27.1084 15.9277 27.3976 16.0241 27.6867 16.3133C27.9759 16.6024 28.1687 16.8916 28.2651 17.2771C28.3614 17.5663 28.4578 17.9518 28.5542 18.7229C28.5542 19.5904 28.5542 19.7831 28.5542 22C28.5542 24.2169 28.5542 24.4096 28.5542 25.2771C28.5542 26.0482 28.3614 26.4337 28.2651 26.7229C28.0723 27.1084 27.9759 27.3976 27.6867 27.6867C27.3976 27.9759 27.1084 28.1687 26.7229 28.2651C26.4337 28.3614 26.0482 28.4578 25.2771 28.5542C24.4096 28.5542 24.2169 28.5542 22 28.5542C19.7831 28.5542 19.5904 28.5542 18.7229 28.5542C17.9518 28.5542 17.5663 28.3614 17.2771 28.2651C16.8916 28.0723 16.6024 27.9759 16.3133 27.6867C16.0241 27.3976 15.8313 27.1084 15.7349 26.7229C15.6386 26.4337 15.5422 26.0482 15.4458 25.2771C15.4458 24.4096 15.4458 24.2169 15.4458 22C15.4458 19.7831 15.4458 19.5904 15.4458 18.7229C15.4458 17.9518 15.6386 17.5663 15.7349 17.2771C15.9277 16.8916 16.0241 16.6024 16.3133 16.3133C16.6024 16.0241 16.8916 15.8313 17.2771 15.7349C17.5663 15.6386 17.9518 15.5422 18.7229 15.4458C19.5904 15.4458 19.8795 15.4458 22 15.4458ZM22 14C19.7831 14 19.5904 14 18.7229 14C17.8554 14 17.2771 14.1928 16.7952 14.3855C16.3133 14.5783 15.8313 14.8675 15.3494 15.3494C14.8675 15.8313 14.6747 16.2169 14.3855 16.7952C14.1928 17.2771 14.0964 17.8554 14 18.7229C14 19.5904 14 19.8795 14 22C14 24.2169 14 24.4096 14 25.2771C14 26.1446 14.1928 26.7229 14.3855 27.2048C14.5783 27.6867 14.8675 28.1687 15.3494 28.6506C15.8313 29.1325 16.2169 29.3253 16.7952 29.6145C17.2771 29.8072 17.8554 29.9036 18.7229 30C19.5904 30 19.8795 30 22 30C24.1205 30 24.4096 30 25.2771 30C26.1446 30 26.7229 29.8072 27.2048 29.6145C27.6867 29.4217 28.1687 29.1325 28.6506 28.6506C29.1325 28.1687 29.3253 27.7831 29.6145 27.2048C29.8072 26.7229 29.9036 26.1446 30 25.2771C30 24.4096 30 24.1205 30 22C30 19.8795 30 19.5904 30 18.7229C30 17.8554 29.8072 17.2771 29.6145 16.7952C29.4217 16.3133 29.1325 15.8313 28.6506 15.3494C28.1687 14.8675 27.7831 14.6747 27.2048 14.3855C26.7229 14.1928 26.1446 14.0964 25.2771 14C24.4096 14 24.2169 14 22 14Z" fill="#181818"/>
<path d="M22 17.8554C19.6867 17.8554 17.8554 19.6867 17.8554 22C17.8554 24.3133 19.6867 26.1446 22 26.1446C24.3133 26.1446 26.1446 24.3133 26.1446 22C26.1446 19.6867 24.3133 17.8554 22 17.8554ZM22 24.6988C20.5542 24.6988 19.3012 23.5422 19.3012 22C19.3012 20.5542 20.4578 19.3012 22 19.3012C23.4458 19.3012 24.6988 20.4578 24.6988 22C24.6988 23.4458 23.4458 24.6988 22 24.6988Z" fill="#181818"/>
<path d="M26.241 18.7229C26.7733 18.7229 27.2048 18.2914 27.2048 17.759C27.2048 17.2267 26.7733 16.7952 26.241 16.7952C25.7086 16.7952 25.2771 17.2267 25.2771 17.759C25.2771 18.2914 25.7086 18.7229 26.241 18.7229Z" fill="#181818"/>
</svg>
