<svg width="38" height="38" viewBox="0 0 38 38" fill="none" xmlns="http://www.w3.org/2000/svg">
<rect width="38" height="38" rx="19" fill="#1BE7BE"/>
<path fill-rule="evenodd" clip-rule="evenodd" d="M19.052 8.25H18.948C18.0495 8.24997 17.3003 8.24995 16.7055 8.32991C16.0777 8.41432 15.5109 8.59999 15.0555 9.05546C14.6 9.51093 14.4143 10.0777 14.3299 10.7055C14.2726 11.1319 14.2564 12.1515 14.2518 13.0257C12.2295 13.0917 11.0154 13.3278 10.1716 14.1716C9 15.3431 9 17.2288 9 21C9 24.7712 9 26.6569 10.1716 27.8284C11.3431 29 13.2288 29 17 29H21C24.7712 29 26.6569 29 27.8284 27.8284C29 26.6569 29 24.7712 29 21C29 17.2288 29 15.3431 27.8284 14.1716C26.9846 13.3278 25.7705 13.0917 23.7482 13.0257C23.7436 12.1515 23.7274 11.1319 23.6701 10.7055C23.5857 10.0777 23.4 9.51093 22.9445 9.05546C22.4891 8.59999 21.9223 8.41432 21.2945 8.32991C20.6997 8.24995 19.9505 8.24997 19.052 8.25ZM22.2479 13.0019C22.2434 12.1552 22.229 11.2441 22.1835 10.9054C22.1214 10.4439 22.0142 10.2464 21.8839 10.1161C21.7536 9.9858 21.5561 9.87858 21.0946 9.81654C20.6116 9.7516 19.964 9.75 19 9.75C18.036 9.75 17.3884 9.7516 16.9054 9.81654C16.4439 9.87858 16.2464 9.9858 16.1161 10.1161C15.9858 10.2464 15.8786 10.4439 15.8165 10.9054C15.771 11.2441 15.7566 12.1552 15.7521 13.0019C16.1435 13 16.5588 13 17 13H21C21.4412 13 21.8565 13 22.2479 13.0019ZM19 16.25C19.4142 16.25 19.75 16.5858 19.75 17V17.0102C20.8388 17.2845 21.75 18.143 21.75 19.3333C21.75 19.7475 21.4142 20.0833 21 20.0833C20.5858 20.0833 20.25 19.7475 20.25 19.3333C20.25 18.9493 19.8242 18.4167 19 18.4167C18.1758 18.4167 17.75 18.9493 17.75 19.3333C17.75 19.7174 18.1758 20.25 19 20.25C20.3849 20.25 21.75 21.2098 21.75 22.6667C21.75 23.857 20.8388 24.7155 19.75 24.9898V25C19.75 25.4142 19.4142 25.75 19 25.75C18.5858 25.75 18.25 25.4142 18.25 25V24.9898C17.1612 24.7155 16.25 23.857 16.25 22.6667C16.25 22.2525 16.5858 21.9167 17 21.9167C17.4142 21.9167 17.75 22.2525 17.75 22.6667C17.75 23.0507 18.1758 23.5833 19 23.5833C19.8242 23.5833 20.25 23.0507 20.25 22.6667C20.25 22.2826 19.8242 21.75 19 21.75C17.6151 21.75 16.25 20.7903 16.25 19.3333C16.25 18.143 17.1612 17.2845 18.25 17.0102V17C18.25 16.5858 18.5858 16.25 19 16.25Z" fill="black"/>
</svg>
