<svg width="49" height="48" viewBox="0 0 49 48" fill="none" xmlns="http://www.w3.org/2000/svg">
<g clip-path="url(#clip0_1449_51389)">
<path d="M0.666992 24C0.666992 37.2555 11.4115 48 24.667 48C37.9225 48 48.667 37.2555 48.667 24C48.667 10.7445 37.9225 0 24.667 0C11.4115 0 0.666992 10.7445 0.666992 24Z" fill="#FFD700"/>
<path d="M26.6182 14.4922V16.5299C27.0553 16.4957 27.5165 16.4256 28.0006 16.3074C27.5512 15.5267 27.0196 14.9051 26.6182 14.4922Z" fill="black"/>
<path d="M29.3613 21.65C29.7981 21.8115 30.2484 22.0109 30.7097 22.2492C31.1634 21.5352 31.4534 20.7075 31.5255 19.8188H29.7555C29.7154 20.4364 29.5837 21.0472 29.3613 21.65Z" fill="black"/>
<path d="M25.7432 24.1389V21.9028C25.1941 21.9193 24.6941 21.991 24.25 22.0924C24.6073 22.7842 25.108 23.467 25.7432 24.1389Z" fill="black"/>
<path d="M22.1602 22.924C22.8901 23.7512 23.8702 24.3523 24.9817 24.6071C24.3038 23.8678 23.7732 23.1115 23.3956 22.3408C22.8302 22.5426 22.4107 22.7701 22.1602 22.924Z" fill="black"/>
<path d="M29.2461 16.8474C29.5054 17.4815 29.6931 18.1842 29.7497 18.9428H31.5252C31.4452 17.9579 31.0979 17.0479 30.5566 16.2847C30.1082 16.5088 29.6708 16.6956 29.2461 16.8474Z" fill="black"/>
<path d="M17.2126 10H15V37.63H17.2126V10Z" fill="black"/>
<path d="M29.9742 15.5942C29.3125 14.9312 28.4785 14.4405 27.5459 14.1948C27.9688 14.6645 28.4573 15.2927 28.8686 16.0513C29.2268 15.9271 29.5962 15.7744 29.9742 15.5942Z" fill="black"/>
<path d="M22.7041 19.8188H20.8359C20.9072 20.6962 21.1911 21.5139 21.6348 22.2216C21.9141 22.0455 22.398 21.7745 23.0578 21.5343C22.8605 20.969 22.7423 20.3969 22.7041 19.8188Z" fill="black"/>
<path d="M24.9401 14.1636C23.9363 14.4021 23.0414 14.923 22.3438 15.638C22.6222 15.7945 23.0228 15.9899 23.5317 16.1605C23.9634 15.3359 24.4911 14.6586 24.9401 14.1636Z" fill="black"/>
<path d="M23.1678 16.9598C22.557 16.7471 22.0868 16.5037 21.7788 16.3213C21.2522 17.0768 20.9146 17.9735 20.8359 18.9426H22.7084C22.7618 18.2285 22.9318 17.5644 23.1678 16.9598Z" fill="black"/>
<path d="M23.8968 21.2778C24.4386 21.1425 25.0576 21.0456 25.7426 21.0264V19.8188H23.582C23.6202 20.3082 23.725 20.7948 23.8968 21.2778Z" fill="black"/>
<path d="M23.5859 18.9424H25.7432V17.429C25.1077 17.4111 24.5299 17.3258 24.017 17.2056C23.7999 17.7383 23.6404 18.3207 23.5859 18.9424Z" fill="black"/>
<path d="M25.7426 16.5519V14.5938C25.3389 15.021 24.8308 15.6367 24.4062 16.3967C24.8101 16.48 25.2574 16.5372 25.7426 16.5519Z" fill="black"/>
<path d="M27.5049 24.5766C28.5504 24.31 29.4738 23.7359 30.1729 22.9562C29.7743 22.7568 29.3857 22.5901 29.0085 22.4531C28.6407 23.1744 28.1371 23.8828 27.5049 24.5766Z" fill="black"/>
<path d="M28.8768 19.8188H26.6182V21.0452C27.2153 21.0872 27.8529 21.1908 28.5268 21.379C28.7205 20.8628 28.8368 20.3424 28.8768 19.8188Z" fill="black"/>
<path d="M35.0603 34.9691V12.6608C35.0603 11.1913 33.869 10 32.3994 10H17.9619V37.63H32.3995C33.8689 37.6299 35.0603 36.4386 35.0603 34.9691ZM27.8038 34.4512H20.8899V33.5722H27.8037V34.4512H27.8038ZM31.4697 34.4512H29.3325V33.5722H31.4697V34.4512ZM31.4697 31.9584H20.8899V31.0794H31.4697V31.9584ZM22.454 29.4655V28.5866H29.9056V29.4655H22.454ZM26.1797 25.6199C22.7391 25.6199 19.9399 22.8207 19.9399 19.3801C19.9399 15.9395 22.7391 13.1403 26.1797 13.1403C29.6203 13.1403 32.4195 15.9395 32.4195 19.3801C32.4196 22.8207 29.6203 25.6199 26.1797 25.6199Z" fill="black"/>
<path d="M28.4025 17.1094C27.7746 17.2762 27.1785 17.3703 26.6182 17.4101V18.9429H28.873C28.8155 18.2835 28.64 17.6679 28.4025 17.1094Z" fill="black"/>
<path d="M26.6182 21.9248V24.2409C27.2701 23.5666 27.7847 22.881 28.1566 22.1866C27.6155 22.0446 27.102 21.9627 26.6182 21.9248Z" fill="black"/>
</g>
<defs>
<clipPath id="clip0_1449_51389">
<rect width="48" height="48" fill="white" transform="translate(0.666992)"/>
</clipPath>
</defs>
</svg>
