<svg width="32" height="32" viewBox="0 0 32 32" fill="none" xmlns="http://www.w3.org/2000/svg">
<rect width="32" height="32" rx="8" fill="#297BE7"/>
<path fill-rule="evenodd" clip-rule="evenodd" d="M22.5625 23.1598C22.0278 22.7061 21.2222 22.7061 20.6875 23.1598C20.1528 23.6134 19.3472 23.6134 18.8125 23.1598C18.2778 22.7061 17.4722 22.7061 16.9375 23.1598C16.4028 23.6134 15.5972 23.6134 15.0625 23.1598C14.5278 22.7061 13.7222 22.7061 13.1875 23.1598C12.6528 23.6134 11.8472 23.6134 11.3125 23.1598C10.7778 22.7061 9.97216 22.7061 9.4375 23.1598C9.07424 23.468 8.5 23.2218 8.5 22.7578V9.24216C8.5 8.77819 9.07424 8.53202 9.4375 8.84027C9.97216 9.29395 10.7778 9.29395 11.3125 8.84027C11.8472 8.38658 12.6528 8.38658 13.1875 8.84027C13.7222 9.29395 14.5278 9.29395 15.0625 8.84027C15.5972 8.38658 16.4028 8.38658 16.9375 8.84027C17.4722 9.29395 18.2778 9.29395 18.8125 8.84027C19.3472 8.38658 20.1528 8.38658 20.6875 8.84027C21.2222 9.29395 22.0278 9.29395 22.5625 8.84027C22.9257 8.53202 23.5 8.77819 23.5 9.24216V22.7578C23.5 23.2218 22.9257 23.468 22.5625 23.1598ZM11.625 16C11.625 15.6548 11.9048 15.375 12.25 15.375H19.75C20.0952 15.375 20.375 15.6548 20.375 16C20.375 16.3452 20.0952 16.625 19.75 16.625H12.25C11.9048 16.625 11.625 16.3452 11.625 16ZM12.25 12.4583C11.9048 12.4583 11.625 12.7382 11.625 13.0833C11.625 13.4285 11.9048 13.7083 12.25 13.7083H19.75C20.0952 13.7083 20.375 13.4285 20.375 13.0833C20.375 12.7382 20.0952 12.4583 19.75 12.4583H12.25ZM11.625 18.9167C11.625 18.5715 11.9048 18.2917 12.25 18.2917H19.75C20.0952 18.2917 20.375 18.5715 20.375 18.9167C20.375 19.2618 20.0952 19.5417 19.75 19.5417H12.25C11.9048 19.5417 11.625 19.2618 11.625 18.9167Z" fill="white"/>
</svg>
