<svg width="48" height="48" viewBox="0 0 48 48" fill="none" xmlns="http://www.w3.org/2000/svg">
<rect width="48" height="48" rx="12" fill="#FFD700"/>
<path fill-rule="evenodd" clip-rule="evenodd" d="M18.82 27.9552C18.1599 27.5526 17.3805 27.3918 16.615 27.5002H14.6667V34.5002H16.2184V31.8285H16.8834C17.5723 31.8993 18.2645 31.7303 18.8434 31.3502C19.3347 30.9287 19.6056 30.3052 19.5784 29.6585C19.6147 29.0017 19.3324 28.3676 18.82 27.9552ZM17.5717 30.5102C17.2786 30.6392 16.9564 30.6875 16.6384 30.6502H16.1834V28.6668H16.6384C16.9687 28.6317 17.3021 28.6967 17.595 28.8535C17.8679 29.0435 18.0225 29.3616 18.0034 29.6935C18.0387 30.0281 17.8681 30.3509 17.5717 30.5102ZM22.915 27.5002H20.9784V34.5002H22.8334C23.7787 34.5927 24.7307 34.4104 25.575 33.9752C26.5041 33.2828 27.0004 32.1527 26.8817 31.0002C26.9512 30.0127 26.5994 29.0421 25.9134 28.3285C25.0659 27.6605 23.9852 27.362 22.915 27.5002ZM24.455 32.9135C23.969 33.1867 23.4124 33.3086 22.8567 33.2635H22.5534V28.7368H22.8334C23.8134 28.7368 24.1984 28.8302 24.5834 29.1802C25.0506 29.6666 25.2919 30.3271 25.2484 31.0002C25.3084 31.7286 25.0129 32.4412 24.455 32.9135ZM28.585 34.5002H30.16V31.5718H33.3334V30.3352H30.16V28.7368H33.3334V27.5002H28.585V34.5002ZM27.5 12.3335H14.6667V25.1668H17V22.8335V21.6085V14.6668H26.5317L31 19.1352V21.6085V22.8335V25.1668H33.3334V18.1668L27.5 12.3335Z" fill="black"/>
</svg>
