<svg width="18" height="18" viewBox="0 0 18 18" fill="none" xmlns="http://www.w3.org/2000/svg">
<path fill-rule="evenodd" clip-rule="evenodd" d="M5.67 11.5425C5.24566 11.2837 4.74462 11.1803 4.2525 11.25H3V15.75H3.9975V14.0325H4.425C4.86787 14.078 5.31288 13.9694 5.685 13.725C6.00086 13.4541 6.17501 13.0533 6.1575 12.6375C6.18088 12.2153 5.99941 11.8077 5.67 11.5425ZM4.8675 13.185C4.67909 13.2679 4.47195 13.299 4.2675 13.275H3.975V12H4.2675C4.4799 11.9774 4.69417 12.0192 4.8825 12.12C5.05789 12.2422 5.15728 12.4466 5.145 12.66C5.16772 12.8751 5.05805 13.0826 4.8675 13.185ZM8.3025 11.25H7.0575V15.75H8.25C8.85774 15.8095 9.46972 15.6923 10.0125 15.4125C10.6097 14.9674 10.9288 14.2409 10.8525 13.5C10.8972 12.8652 10.671 12.2412 10.23 11.7825C9.68521 11.3531 8.99046 11.1612 8.3025 11.25ZM9.2925 14.73C8.98004 14.9056 8.62226 14.984 8.265 14.955H8.07V12.045H8.25C8.88 12.045 9.1275 12.105 9.375 12.33C9.67537 12.6427 9.8305 13.0673 9.8025 13.5C9.84109 13.9683 9.65114 14.4264 9.2925 14.73ZM11.9475 15.75H12.96V13.8675H15V13.0725H12.96V12.045H15V11.25H11.9475V15.75ZM11.25 1.5H3V9.75H4.5V8.25V7.4625V3H10.6275L13.5 5.8725V7.4625V8.25V9.75H15V5.25L11.25 1.5Z" fill="black"/>
</svg>
