<svg width="48" height="48" viewBox="0 0 48 48" fill="none" xmlns="http://www.w3.org/2000/svg">
<rect width="48" height="48" rx="12" fill="#FFD700"/>
<path d="M23.0489 11.9271C23.3483 11.0057 24.6517 11.0057 24.9511 11.9271L27.1432 18.6738C27.2771 19.0858 27.661 19.3647 28.0943 19.3647H35.1882C36.1569 19.3647 36.5597 20.6044 35.776 21.1738L30.0369 25.3435C29.6864 25.5981 29.5397 26.0495 29.6736 26.4615L31.8657 33.2082C32.1651 34.1295 31.1106 34.8956 30.3269 34.3262L24.5878 30.1565C24.2373 29.9019 23.7627 29.9019 23.4122 30.1565L17.6731 34.3262C16.8894 34.8956 15.8349 34.1295 16.1343 33.2082L18.3264 26.4615C18.4603 26.0495 18.3136 25.5981 17.9631 25.3435L12.2241 21.1738C11.4403 20.6044 11.8431 19.3647 12.8118 19.3647H19.9057C20.339 19.3647 20.7229 19.0858 20.8568 18.6738L23.0489 11.9271Z" stroke="#736728" stroke-width="2"/>
</svg>
