<svg width="48" height="48" viewBox="0 0 48 48" fill="none" xmlns="http://www.w3.org/2000/svg">
<g clip-path="url(#clip0_1444_51356)">
<path d="M0 24C0 37.2555 10.7445 48 24 48C37.2555 48 48 37.2555 48 24C48 10.7445 37.2555 0 24 0C10.7445 0 0 10.7445 0 24Z" fill="#FFD700"/>
<g clip-path="url(#clip1_1444_51356)">
<path d="M37.3272 22.9931C36.1477 22.9931 35.7579 22.1248 35.5468 21.7112C35.0008 20.6429 34.1374 19.0074 32.6294 18.1378C32.0496 19.0649 31.8172 19.5297 31.5861 20.979C30.659 16.2824 32.3857 13.1376 32.6356 11.7495C30.9364 12.1806 28.455 13.7898 27.6516 15.9588C27.2343 15.7114 25.9849 15.4965 25.6138 15.4965H21.2596C19.9615 15.5089 18.6786 15.7776 17.4847 16.2872C16.2907 16.7968 15.2092 17.5373 14.3023 18.466C13.3953 19.3948 12.6808 20.4936 12.1997 21.6993C11.7187 22.9051 11.4806 24.1939 11.499 25.492C11.499 28.1083 12.7622 30.4847 14.82 32.2639C15.1136 32.5187 15.7134 33.1535 15.5122 34.1767C15.311 35.2 14.9675 36.898 14.9675 36.898L20.4062 37.9862C20.4062 37.9862 20.6049 37.1916 20.7398 36.3195C20.8748 35.4474 21.5757 35.3237 22.4003 35.4012C22.9226 35.4487 23.4523 35.4874 23.9933 35.4874C24.653 35.4874 25.299 35.4412 25.9299 35.3587C26.2985 35.31 27.0282 35.2937 27.1969 36.0671C27.3643 36.8393 27.5804 37.9862 27.5804 37.9862L33.0192 36.898C33.0192 36.898 32.5519 34.7315 32.4295 34.073C32.307 33.4146 32.7893 32.9111 33.0254 32.7037C33.8288 31.999 34.4985 31.1906 34.8533 30.3997C35.0657 29.9237 35.7942 29.2402 36.8199 29.2402H38.9864V22.9931H37.3272ZM32.1146 26.7414C31.8684 26.7413 31.6246 26.6927 31.3972 26.5984C31.1698 26.5042 30.9632 26.366 30.7891 26.1918C30.6151 26.0177 30.4771 25.811 30.3829 25.5835C30.2888 25.356 30.2404 25.1122 30.2405 24.866C30.2405 24.6198 30.2891 24.376 30.3834 24.1486C30.4777 23.9212 30.6159 23.7146 30.79 23.5405C30.9642 23.3665 31.1709 23.2285 31.3984 23.1343C31.6258 23.0402 31.8696 22.9918 32.1158 22.9919C32.6131 22.992 33.0899 23.1897 33.4413 23.5414C33.7928 23.8931 33.9902 24.37 33.99 24.8673C33.9898 25.3645 33.7921 25.8413 33.4404 26.1927C33.0887 26.5442 32.6118 26.7416 32.1146 26.7414Z" fill="black"/>
<path d="M12.2835 25.3945C12.2835 25.3945 9 26.1367 9 22.5446C9 20.1419 11.9087 19.8608 11.9087 21.7175C11.8312 21.139 10.2494 21.099 10.2494 22.3684C10.2494 23.9302 12.4934 24.0077 12.4934 22.3484C13.6366 21.8636 13.2506 25.4383 12.2835 25.3945ZM26.0547 14.2471C26.3271 13.6774 26.492 13.0464 26.492 12.373C26.492 11.2132 26.0313 10.1009 25.2112 9.28082C24.3911 8.46072 23.2788 8 22.119 8C20.9592 8 19.8469 8.46072 19.0268 9.28082C18.2067 10.1009 17.746 11.2132 17.746 12.373C17.746 13.0464 17.9109 13.6774 18.1833 14.2471H26.0547Z" fill="black"/>
</g>
</g>
<defs>
<clipPath id="clip0_1444_51356">
<rect width="48" height="48" fill="white"/>
</clipPath>
<clipPath id="clip1_1444_51356">
<rect width="30" height="30" fill="white" transform="translate(9 8)"/>
</clipPath>
</defs>
</svg>
