<svg width="18" height="18" viewBox="0 0 18 18" fill="none" xmlns="http://www.w3.org/2000/svg">
<path d="M15.3953 8.4039C15.3643 8.38517 15.3333 8.36737 15.3031 8.35051C14.7776 8.05643 14.2451 7.78108 13.7134 7.50573C13.6847 7.50573 13.6367 7.46545 13.6096 7.45234C13.5685 7.4308 13.5274 7.4102 13.4863 7.38866C13.4073 7.34745 13.3282 7.30717 13.2499 7.26596C13.0918 7.18448 12.9345 7.10301 12.7764 7.02153C12.4609 6.85857 12.1455 6.69561 11.83 6.53172C11.1991 6.20579 10.5674 5.87891 9.93655 5.55299C9.30565 5.22707 8.67398 4.90021 8.04308 4.57429C7.41217 4.24837 6.7805 3.92151 6.1496 3.59559C5.5187 3.26967 4.88701 2.94281 4.25611 2.61689C4.11583 2.54384 3.96392 2.43519 3.81355 2.40335C3.68722 2.37619 3.564 2.32375 3.43688 2.29472C3.19584 2.23946 2.92999 2.21698 2.69903 2.3378C2.61919 2.37994 2.54556 2.43893 2.48433 2.51292C2.19136 2.86319 2.23244 3.43825 2.29444 3.93089C2.72615 7.36432 3.15786 10.7987 3.59035 14.2321C3.64925 14.7032 3.72986 15.2202 4.03756 15.518C4.29798 15.7699 4.66846 15.798 4.99011 15.6913C5.31176 15.5836 5.59543 15.3578 5.87368 15.1359C7.02774 14.2124 8.18258 13.289 9.33665 12.3655C9.61102 12.1464 9.91639 11.8598 9.91329 11.4618C9.91174 11.222 9.79317 11.0085 9.67226 10.8183C8.66933 9.23742 7.22229 8.15102 6.14572 6.64316C5.99381 6.43056 5.87445 6.04658 6.08294 5.92389C6.20695 5.85084 6.34957 5.95009 6.46273 6.04469C7.88575 7.2388 9.30797 8.43385 10.731 9.62797C11.1952 10.0176 11.682 10.4184 12.2416 10.5139C12.7423 10.6001 13.2461 10.4315 13.7305 10.2592C14.1366 10.115 14.542 9.967 14.9458 9.81434C15.1605 9.7338 15.3821 9.6467 15.548 9.46407C15.7139 9.28144 15.8092 8.97426 15.7092 8.73076C15.6464 8.5781 15.5247 8.48163 15.3969 8.40296L15.3953 8.4039Z" fill="white"/>
</svg>
