<svg width="38" height="38" viewBox="0 0 38 38" fill="none" xmlns="http://www.w3.org/2000/svg">
<rect width="38" height="38" rx="19" fill="#249269"/>
<g clip-path="url(#clip0_1607_6252)">
<path d="M29.0097 18.4951C29.0097 17.2388 25.5913 16.1906 21.0486 15.9488L21.0483 13.9471H26.7204V9.78125H11.2105V13.9471H16.8821V15.9586C12.4222 16.217 9.08594 17.2542 9.08594 18.4951C9.08594 19.7361 12.4222 20.7735 16.8821 21.0314V28.2195H21.0483V21.0412C25.5913 20.7999 29.0097 19.7514 29.0097 18.4951ZM19.0478 19.7327C14.1718 19.7327 10.2189 18.978 10.2189 18.0465C10.2189 17.2578 13.0534 16.5957 16.8821 16.4115V16.8862H16.8826V18.8316C17.5729 18.8704 18.2983 18.8906 19.0478 18.8906C19.7379 18.8906 20.4081 18.8731 21.0487 18.841V16.4042C24.9605 16.5772 27.8768 17.2463 27.8768 18.0465C27.8767 18.978 23.9238 19.7327 19.0478 19.7327Z" fill="white"/>
</g>
<defs>
<clipPath id="clip0_1607_6252">
<rect width="20" height="20" fill="white" transform="translate(9 9)"/>
</clipPath>
</defs>
</svg>
