<svg width="49" height="48" viewBox="0 0 49 48" fill="none" xmlns="http://www.w3.org/2000/svg">
<g clip-path="url(#clip0_1449_51364)">
<path d="M0.666992 24C0.666992 37.2555 11.4115 48 24.667 48C37.9225 48 48.667 37.2555 48.667 24C48.667 10.7445 37.9225 0 24.667 0C11.4115 0 0.666992 10.7445 0.666992 24Z" fill="#FFD700"/>
<path d="M12.5 20.4212C12.5 26.4998 17.5243 29.7391 21.2022 32.6384C22.5 33.6616 23.75 34.6248 25 34.6248C26.25 34.6248 27.5 33.6616 28.7979 32.6384C32.4757 29.7391 37.5 26.4998 37.5 20.4212C37.5 14.3425 30.6247 10.0316 25 15.8756C19.3752 10.0316 12.5 14.3425 12.5 20.4212Z" fill="black"/>
</g>
<defs>
<clipPath id="clip0_1449_51364">
<rect width="48" height="48" fill="white" transform="translate(0.666992)"/>
</clipPath>
</defs>
</svg>
