<svg width="1248" height="662" viewBox="0 0 1248 662" fill="none" xmlns="http://www.w3.org/2000/svg">
<g opacity="0.4">
<path opacity="0.4" d="M614.5 289.811C614.776 289.811 615 289.581 615 289.297C615 289.013 614.776 288.783 614.5 288.783C614.224 288.783 614 289.013 614 289.297C614 289.581 614.224 289.811 614.5 289.811Z" fill="white"/>
<path d="M897.5 206.567C897.776 206.567 898 206.337 898 206.053C898 205.769 897.776 205.539 897.5 205.539C897.224 205.539 897 205.769 897 206.053C897 206.337 897.224 206.567 897.5 206.567Z" fill="white"/>
<path d="M122.5 530.291C122.776 530.291 123 530.061 123 529.778C123 529.494 122.776 529.264 122.5 529.264C122.224 529.264 122 529.494 122 529.778C122 530.061 122.224 530.291 122.5 530.291Z" fill="white"/>
<path d="M704.5 300.088C704.776 300.088 705 299.858 705 299.574C705 299.291 704.776 299.061 704.5 299.061C704.224 299.061 704 299.291 704 299.574C704 299.858 704.224 300.088 704.5 300.088Z" fill="white"/>
<path d="M987.5 216.844C987.776 216.844 988 216.614 988 216.33C988 216.046 987.776 215.816 987.5 215.816C987.224 215.816 987 216.046 987 216.33C987 216.614 987.224 216.844 987.5 216.844Z" fill="white"/>
<path d="M212.5 540.569C212.776 540.569 213 540.339 213 540.055C213 539.771 212.776 539.541 212.5 539.541C212.224 539.541 212 539.771 212 540.055C212 540.339 212.224 540.569 212.5 540.569Z" fill="white"/>
<path d="M794.5 248.703C794.776 248.703 795 248.473 795 248.19C795 247.906 794.776 247.676 794.5 247.676C794.224 247.676 794 247.906 794 248.19C794 248.473 794.224 248.703 794.5 248.703Z" fill="white"/>
<path opacity="0.5" d="M1077.5 165.459C1077.78 165.459 1078 165.229 1078 164.945C1078 164.662 1077.78 164.432 1077.5 164.432C1077.22 164.432 1077 164.662 1077 164.945C1077 165.229 1077.22 165.459 1077.5 165.459Z" fill="white"/>
<path d="M302.5 489.184C302.776 489.184 303 488.954 303 488.67C303 488.386 302.776 488.156 302.5 488.156C302.224 488.156 302 488.386 302 488.67C302 488.954 302.224 489.184 302.5 489.184Z" fill="white"/>
<path d="M884.5 156.209C884.776 156.209 885 155.979 885 155.695C885 155.412 884.776 155.182 884.5 155.182C884.224 155.182 884 155.412 884 155.695C884 155.979 884.224 156.209 884.5 156.209Z" fill="white"/>
<path opacity="0.5" d="M1167.5 72.9671C1167.78 72.9671 1168 72.7371 1168 72.4533C1168 72.1695 1167.78 71.9395 1167.5 71.9395C1167.22 71.9395 1167 72.1695 1167 72.4533C1167 72.7371 1167.22 72.9671 1167.5 72.9671Z" fill="white"/>
<path opacity="0.4" d="M392.5 396.692C392.776 396.692 393 396.462 393 396.178C393 395.894 392.776 395.664 392.5 395.664C392.224 395.664 392 395.894 392 396.178C392 396.462 392.224 396.692 392.5 396.692Z" fill="white"/>
<path d="M854.5 84.2718C854.776 84.2718 855 84.0418 855 83.758C855 83.4742 854.776 83.2441 854.5 83.2441C854.224 83.2441 854 83.4742 854 83.758C854 84.0418 854.224 84.2718 854.5 84.2718Z" fill="white"/>
<path opacity="0.4" d="M1137.5 1.0277C1137.78 1.0277 1138 0.797639 1138 0.513848C1138 0.230058 1137.78 0 1137.5 0C1137.22 0 1137 0.230058 1137 0.513848C1137 0.797639 1137.22 1.0277 1137.5 1.0277Z" fill="white"/>
<path opacity="0.4" d="M764.5 53.4398C764.776 53.4398 765 53.2097 765 52.926C765 52.6422 764.776 52.4121 764.5 52.4121C764.224 52.4121 764 52.6422 764 52.926C764 53.2097 764.224 53.4398 764.5 53.4398Z" fill="white"/>
<path d="M724.5 187.041C724.776 187.041 725 186.811 725 186.528C725 186.244 724.776 186.014 724.5 186.014C724.224 186.014 724 186.244 724 186.528C724 186.811 724.224 187.041 724.5 187.041Z" fill="white"/>
<path d="M1007.5 103.797C1007.78 103.797 1008 103.567 1008 103.283C1008 103 1007.78 102.77 1007.5 102.77C1007.22 102.77 1007 103 1007 103.283C1007 103.567 1007.22 103.797 1007.5 103.797Z" fill="white"/>
<path d="M784.5 320.641C784.776 320.641 785 320.411 785 320.127C785 319.843 784.776 319.613 784.5 319.613C784.224 319.613 784 319.843 784 320.127C784 320.411 784.224 320.641 784.5 320.641Z" fill="white"/>
<path d="M1067.5 237.399C1067.78 237.399 1068 237.169 1068 236.885C1068 236.601 1067.78 236.371 1067.5 236.371C1067.22 236.371 1067 236.601 1067 236.885C1067 237.169 1067.22 237.399 1067.5 237.399Z" fill="white"/>
<path d="M292.5 561.121C292.776 561.121 293 560.891 293 560.608C293 560.324 292.776 560.094 292.5 560.094C292.224 560.094 292 560.324 292 560.608C292 560.891 292.224 561.121 292.5 561.121Z" fill="white"/>
<path d="M934.5 258.979C934.776 258.979 935 258.749 935 258.465C935 258.181 934.776 257.951 934.5 257.951C934.224 257.951 934 258.181 934 258.465C934 258.749 934.224 258.979 934.5 258.979Z" fill="white"/>
<path d="M1217.5 175.737C1217.78 175.737 1218 175.507 1218 175.223C1218 174.939 1217.78 174.709 1217.5 174.709C1217.22 174.709 1217 174.939 1217 175.223C1217 175.507 1217.22 175.737 1217.5 175.737Z" fill="white"/>
<path d="M442.5 499.461C442.776 499.461 443 499.231 443 498.947C443 498.664 442.776 498.434 442.5 498.434C442.224 498.434 442 498.664 442 498.947C442 499.231 442.224 499.461 442.5 499.461Z" fill="white"/>
<path d="M954.5 248.703C954.776 248.703 955 248.473 955 248.19C955 247.906 954.776 247.676 954.5 247.676C954.224 247.676 954 247.906 954 248.19C954 248.473 954.224 248.703 954.5 248.703Z" fill="white"/>
<path d="M1237.5 165.459C1237.78 165.459 1238 165.229 1238 164.945C1238 164.662 1237.78 164.432 1237.5 164.432C1237.22 164.432 1237 164.662 1237 164.945C1237 165.229 1237.22 165.459 1237.5 165.459Z" fill="white"/>
<path d="M462.5 489.184C462.776 489.184 463 488.954 463 488.67C463 488.386 462.776 488.156 462.5 488.156C462.224 488.156 462 488.386 462 488.67C462 488.954 462.224 489.184 462.5 489.184Z" fill="white"/>
<path d="M964.5 156.209C964.776 156.209 965 155.979 965 155.695C965 155.412 964.776 155.182 964.5 155.182C964.224 155.182 964 155.412 964 155.695C964 155.979 964.224 156.209 964.5 156.209Z" fill="white"/>
<path d="M1247.5 72.9671C1247.78 72.9671 1248 72.7371 1248 72.4533C1248 72.1695 1247.78 71.9395 1247.5 71.9395C1247.22 71.9395 1247 72.1695 1247 72.4533C1247 72.7371 1247.22 72.9671 1247.5 72.9671Z" fill="white"/>
<path d="M472.5 396.692C472.776 396.692 473 396.462 473 396.178C473 395.894 472.776 395.664 472.5 395.664C472.224 395.664 472 395.894 472 396.178C472 396.462 472.224 396.692 472.5 396.692Z" fill="white"/>
<path opacity="0.4" d="M943.5 115.102C943.776 115.102 944 114.872 944 114.588C944 114.304 943.776 114.074 943.5 114.074C943.224 114.074 943 114.304 943 114.588C943 114.872 943.224 115.102 943.5 115.102Z" fill="white"/>
<path d="M1226.5 31.8578C1226.78 31.8578 1227 31.6277 1227 31.3439C1227 31.0601 1226.78 30.8301 1226.5 30.8301C1226.22 30.8301 1226 31.0601 1226 31.3439C1226 31.6277 1226.22 31.8578 1226.5 31.8578Z" fill="white"/>
<path d="M451.5 355.582C451.776 355.582 452 355.352 452 355.069C452 354.785 451.776 354.555 451.5 354.555C451.224 354.555 451 354.785 451 355.069C451 355.352 451.224 355.582 451.5 355.582Z" fill="white"/>
<path opacity="0.4" d="M822.5 166.487C822.776 166.487 823 166.257 823 165.973C823 165.689 822.776 165.459 822.5 165.459C822.224 165.459 822 165.689 822 165.973C822 166.257 822.224 166.487 822.5 166.487Z" fill="white"/>
<path d="M1105.5 83.2425C1105.78 83.2425 1106 83.0125 1106 82.7287C1106 82.4449 1105.78 82.2148 1105.5 82.2148C1105.22 82.2148 1105 82.4449 1105 82.7287C1105 83.0125 1105.22 83.2425 1105.5 83.2425Z" fill="white"/>
<path opacity="0.5" d="M330.5 406.967C330.776 406.967 331 406.737 331 406.453C331 406.17 330.776 405.939 330.5 405.939C330.224 405.939 330 406.17 330 406.453C330 406.737 330.224 406.967 330.5 406.967Z" fill="white"/>
<path opacity="0.5" d="M701.5 238.426C701.776 238.426 702 238.196 702 237.912C702 237.628 701.776 237.398 701.5 237.398C701.224 237.398 701 237.628 701 237.912C701 238.196 701.224 238.426 701.5 238.426Z" fill="white"/>
<path d="M984.5 155.182C984.776 155.182 985 154.952 985 154.668C985 154.384 984.776 154.154 984.5 154.154C984.224 154.154 984 154.384 984 154.668C984 154.952 984.224 155.182 984.5 155.182Z" fill="white"/>
<path opacity="0.4" d="M209.5 478.907C209.776 478.907 210 478.677 210 478.393C210 478.109 209.776 477.879 209.5 477.879C209.224 477.879 209 478.109 209 478.393C209 478.677 209.224 478.907 209.5 478.907Z" fill="white"/>
<path d="M570.5 351.473C570.776 351.473 571 351.243 571 350.959C571 350.675 570.776 350.445 570.5 350.445C570.224 350.445 570 350.675 570 350.959C570 351.243 570.224 351.473 570.5 351.473Z" fill="white"/>
<path d="M853.5 268.229C853.776 268.229 854 267.999 854 267.715C854 267.431 853.776 267.201 853.5 267.201C853.224 267.201 853 267.431 853 267.715C853 267.999 853.224 268.229 853.5 268.229Z" fill="white"/>
<path d="M78.5 591.953C78.7761 591.953 79 591.723 79 591.44C79 591.156 78.7761 590.926 78.5 590.926C78.2239 590.926 78 591.156 78 591.44C78 591.723 78.2239 591.953 78.5 591.953Z" fill="white"/>
<path d="M489.5 464.52C489.776 464.52 490 464.29 490 464.006C490 463.722 489.776 463.492 489.5 463.492C489.224 463.492 489 463.722 489 464.006C489 464.29 489.224 464.52 489.5 464.52Z" fill="white"/>
<path d="M772.5 381.276C772.776 381.276 773 381.046 773 380.762C773 380.478 772.776 380.248 772.5 380.248C772.224 380.248 772 380.478 772 380.762C772 381.046 772.224 381.276 772.5 381.276Z" fill="white"/>
</g>
</svg>
